<?xml version="1.0" encoding="UTF-8"?>
<svg id="Calque_2" data-name="Calque 2" xmlns="http://www.w3.org/2000/svg" xmlns:xlink="http://www.w3.org/1999/xlink" viewBox="0 0 129.6 42.91">
  <defs>
    <style>
      .cls-1 {
        fill: none;
        stroke: #265d9a;
        stroke-miterlimit: 10;
        stroke-width: 1.6px;
      }

      .cls-2 {
        fill: #265d9a;
      }

      .cls-3 {
        clip-path: url(#clippath);
      }
    </style>
    <clipPath id="clippath">
      <path class="cls-1" d="M1.94,29.47c-1.07-1.01-1.14-3.05-1.13-4.58.01-6.19-.03-12.46.01-18.65.03-1.11.19-2.36.79-3.21C3.17.85,7.06,1.64,9.74,1.48c2.81.18,7.6-.87,8.47,2.66.26,1.11-.17,2.37-1.03,3.06-1.28,1.12-3.66.85-5.31,1.1-2.85.35-4,2.77-.83,3.79,1.27.39,3.07.26,4.27.72,1.17.39,2.04,1.49,2.07,2.73.05,2.14-1.82,3.19-3.88,3.29-1.1.11-2.13.16-3.03.57-1.04.48-1.66,1.33-1.51,2.28.12.94,1.26,1.8,2.41,2.02,1.71.41,4.46-.03,5.84,1.21,1.57,1.26,1.38,4.01-.4,5-1.65.96-4.09.64-6.32.7-1.08,0-2.17,0-3.25,0-1.77-.03-3.93.14-5.27-1.11l-.02-.02Z"/>
    </clipPath>
  </defs>
  <g id="Calque_1-2" data-name="Calque 1">
    <g>
      <g>
        <g class="cls-3">
          <path class="cls-2" d="M7.06,32.35c.24-.02.18-.19.19-.35,0-1.48,0-3.8,0-5.33.17-1.24-.51-2.48-.58-3.72.11-1.35-.28-2.75-.39-4.11-.02-.78.04-1.58-.03-2.36-.13-.67-.48-1.3-.45-1.97-.17-1.74.82-3.58.73-5.24-.02-.38.07-.79-.15-1.13-.1-.25-.51-.57-.32-.82.1-.08.33-.06.44.04.37.97.52,2.41.82,3.49.14.73.48,1.66.51,2.4,0,2.47,0,4.95,0,7.42.03.77.7,1.56.67,2.34,0,.72,0,1.49,0,2.2-.03.74.47,1.36.39,2.09.07.82-.14,1.62-.41,2.43-.08.28-.06.39,0,.68.12.51.26,1.37.39,1.83-.04-1.13.65-2.26.64-3.4.07-.35.32-.73.41-1.05.08-.4.05-.85.03-1.24-.07-.49-.55-.93-.7-1.41-.02-.94-.07-1.87-.08-2.8-.25-1.55-.73-3.12-.68-4.7-.05-.98.08-1.95.06-2.92-.19-.89-.12-1.74-.2-2.63-.06-.32-.32-.63-.42-.92-.1-.31-.06-.65-.07-.97-.05-.85-.37-2.16-.48-2.93-.05-.17,0-.3.36-.19.41.11.99.22,1.47.24.62.11.96-.32.53-.58-.24-.13-.66-.07-.93-.15-.55-.25-.43-1.03-.63-1.46-.41-1.26-.28-1.45.21-2.68.25-1.18.19-2.84.27-3.92-.48,1.82-1.01,3.77-1.41,5.55.09.71.59,1.51.6,2.21.07.38-.81.62-1.14.3-.25-.58-.15-1.21-.28-1.82,0-1.1-1.1-1.52-.11-2.6.43-.69.16-1.48.23-2.21-.03-.46.12-.83.11-1.27-.09-.34-.85-.24-1.25-.2-.23.07-.2.19-.22.38,0,.85,0,1.71,0,2.57.03.98-.06,1.97.04,2.95.08.36.35.71.43,1.07-.01.29.48,1.17-.27,1.16-.26-.01-.6-.05-.74-.2-.19-.46-.02-1.09-.08-1.57-.02-.44-.65-.63-.92-1.01-.16-.19-.5-.65-.77-.65.17.89.85,2.04,1.06,2.94.17,1.94,1.29,1.41,1.85,2.39.08.38.1.79.14,1.17.13.95-.25,1.81-.78,2.71-.39.74-.6,1.54-.95,2.29-.61.83-.54.66.23,1.38.17.22.26,1.16,0,1.34-.32.09-.58-.29-.83-.34-.09.47.04,1.05.02,1.55.06.63-.1,1.12-.03,1.72.13.54,1.23.14,1.67.48.54.32.18.84.22,1.24.19.55.37,1.12.51,1.69.48.83.36,1.71.36,2.59,0,1.21,0,2.42,0,3.63,0,.57,0,1.03,0,1.59-.04.32-.01.88.67.8h0Z"/>
          <path class="cls-2" d="M5.56,31.91l-.38-1.25-.85-1.78v-2.22l-.77,1.54v1.85c-.19.62-.86.62-.86.62,1.15.49,1.63,1.25,1.63,1.25h1.24Z"/>
          <path class="cls-2" d="M1.52,31.18l.39-.82.75-2.61h-.57l-.57-.8v-.92c-.38-.8-.96-1.71-.96-1.71v-1.16l.57-.39c.57.12.48.39.48.39l.67,1.16v1.04l.38,1.23c.57.62.91-1.85.91-1.85l-.62-1.97v-.62h-1.24c-.57.62-1.15.62-1.15.62-.67.25-1.24.76-1.24.76-.19.78,0,1.58,0,1.58l.38,1.05.2,1.17c1.04.37,1.5.55,1.5.55.21.55,0,.92,0,.92l.11,2.38Z"/>
          <path class="cls-2" d="M-2.46,18.72l.38,2.4-.19.93c-.57.8-.86.98-.86.98l-1.09-1.11.42-1.05.1-2.15.55-.31.02-.37.57-.55.48-.31c-.48-.86-.48-1.29-.48-1.29-.48.62-.57,1.03-.57,1.03l-.48.27-.61-.98v-1.97l.42-.8h1.15c1.24-.49,1.24,0,1.24,0v3.49l-.38,1.2c.57-.26.38-.57.38-.57,0-.64.67-2.59.67-2.59l.58-.8-.58-1.35c-.48-.86-.67-2.15-.67-2.15v-1.29l1.25.62c.76.92.47,2.15.47,2.15l.57.74c.19.43.86.8.86.8.76.74.96,1.23.96,1.23v.92l-1.82-.8c0,.8.19,1.17.19,1.17.48.92,1.15,1.35,1.15,1.35l-1.91.12c1.53.74,1.91.98,1.91.98.1.55,0,.8,0,.8-.1.62,0,.92,0,.92-.29.68,0,1.17,0,1.17-.76.62-1.43-.44-1.43-.44-.19-1.23-.48-2.09-.48-2.09l-.47-.31-1.25.31.48,1.03-1.53-1.34Z"/>
          <path class="cls-2" d="M2.37,13.35c-.14-.27-.11-.66.13-.79.33-.18,1.06.14,1.08.56,0,.29-.33.63-.68.6-.32-.02-.49-.33-.52-.38Z"/>
          <path class="cls-2" d="M3.45,9.11c-.14-.27-.11-.66.13-.79.33-.18,1.06.14,1.08.56,0,.29-.33.63-.68.6-.32-.02-.49-.33-.52-.38Z"/>
          <path class="cls-2" d="M1.44,11.79c-.14-.27-.11-.66.13-.79.33-.18,1.06.14,1.08.56,0,.29-.33.63-.68.6-.32-.02-.49-.33-.52-.38Z"/>
          <path class="cls-2" d="M1.73,6.31c-.14-.27-.11-.66.13-.79.33-.18,1.06.14,1.08.56,0,.29-.33.63-.68.6-.32-.02-.49-.33-.52-.38Z"/>
          <path class="cls-2" d="M3.45,11.13c-.14-.27-.11-.66.13-.79.33-.18,1.06.14,1.08.56,0,.29-.33.63-.68.6-.32-.02-.49-.33-.52-.38Z"/>
          <path class="cls-2" d="M-.71,29.23c-.14-.27-.11-.66.13-.79.33-.18,1.06.14,1.08.56,0,.29-.33.63-.68.6-.32-.02-.49-.33-.52-.38Z"/>
          <path class="cls-2" d="M1.06,11l.67-.37c.1-.8,0-1.35,0-1.35.86-1.05.76-1.97.76-1.97h-.72l-.72-.31h-.48v-1.23c.38-.68.38-1.48.38-1.48-.1-.8-.38-1.72-.38-1.72v-.68L-.09,1.02-.57-.45c-.48-.74-.57-1.29-.57-1.29l-.48,1.05V.35l.48.98c0,.74.29,1.29.29,1.29.48,0,.67.8.67.8l-.1,1.2-.19,1.2-.29,1.29c-.19.43-.86-.25-.86-.25l-.13-1.05v-3.57l-1.31.18v.43l-.96.62v1.14c.19.52,0,.95,0,.95.19.43,0,.6,0,.6v.82c.57-.49.96-1.05.96-1.05l.3-.33.27-.29v.84c0,.64-.1,1.19-.1,1.19l-.48.31c-.1.37,0,.74,0,.74-.29.62-.38,1.35-.38,1.35l.38,1.23-.38,1.17.38-.37c.57-.43.57-1.11.57-1.11.1-.68.1-1.42.1-1.42,0-.68.19-1.11.19-1.11l.86-.25c.67-.25,1.43-.43,1.43-.43.38.55.57,1.23.57,1.23,0,.25.1.92.1.92l.1.73-.1.25.29.37Z"/>
          <rect class="cls-1" x="11.17" y="-1.95" width="17.99" height="56.49"/>
          <path class="cls-2" d="M33.08,41.91c-1.04.67-2.72.91-4.93,1.02-2.65.11-5.59.08-8.34.06-2.89-.14-6.14.05-7.64-1.88-.78-1.12-.87-2.7-.94-4.22-.02-9.79-.18-24.02.07-34.02C11.5,0,12.58-1.39,15.65-1.77c3.11-.39,7.76-.28,11.12-.25,2.53.13,4.98.02,6.7,1.36,1.65,1.52,1.34,4.39,1.44,6.55-.02,8.4.06,21.41-.03,30.91-.13,2.59-.27,4.07-1.77,5.1h-.02Z"/>
        </g>
        <path class="cls-1" d="M1.94,29.47c-1.07-1.01-1.14-3.05-1.13-4.58.01-6.19-.03-12.46.01-18.65.03-1.11.19-2.36.79-3.21C3.17.85,7.06,1.64,9.74,1.48c2.81.18,7.6-.87,8.47,2.66.26,1.11-.17,2.37-1.03,3.06-1.28,1.12-3.66.85-5.31,1.1-2.85.35-4,2.77-.83,3.79,1.27.39,3.07.26,4.27.72,1.17.39,2.04,1.49,2.07,2.73.05,2.14-1.82,3.19-3.88,3.29-1.1.11-2.13.16-3.03.57-1.04.48-1.66,1.33-1.51,2.28.12.94,1.26,1.8,2.41,2.02,1.71.41,4.46-.03,5.84,1.21,1.57,1.26,1.38,4.01-.4,5-1.65.96-4.09.64-6.32.7-1.08,0-2.17,0-3.25,0-1.77-.03-3.93.14-5.27-1.11l-.02-.02Z"/>
      </g>
      <path class="cls-2" d="M128,15.19c-1.63-2.27-5.06-3.1-7.81-1.89-2.97,1.28-2.6,3.77-2.31,5.77.11.78.22,1.52.17,2.14-.07.49-.28.62-.45.69-.64.23-1.9-.19-2.72-.91-2.41-2.07-2.68-6.27-.56-8.84.96-1.22,2.43-2.15,4.16-2.64.91-.27,1.85-.41,2.77-.55,1.51-.23,3.08-.46,4.47-1.31.93-.59,1.48-1.45,1.53-2.44.06-1.14-.53-2.32-1.58-3.15-1.06-.91-2.6-1.56-4.36-1.85-6.15-.91-11.42,1.14-14.83,5.74-3.74,5.04-4.47,12.19-1.83,17.8,2.38,5.04,7.04,7.99,13.13,8.31.21.01.48.02.81.02,2.14,0,6.47-.39,8.85-3.29,0,0,0,0,.01-.01,2.61-3.02,2.9-10.38.55-13.59Z"/>
      <path class="cls-2" d="M101.76,16.74c0-3.29,0-6.58,0-9.85,0-.7-.03-1.61-.18-2.41-.17-1.28-.82-2.36-1.82-3.06-1.01-.7-2.32-.93-3.57-.64-2.14.45-3.39,2.33-3.45,5.17-.04,1.31-.03,2.62-.03,3.94,0,.78,0,1.56,0,2.28-.01.13-.01.36-.01.64,0,.31,0,1.03-.06,1.58-.44-.63-1.02-1.67-1.54-2.61l-3.11-5.62c-1.13-2.08-2.57-4.37-5.32-5.21-1.9-.62-4.4-.41-5.73,1.48-1,1.55-.99,3.28-.97,5.12,0,.46,0,.92,0,1.42v1.48c0,2,0,4.01,0,6.02,0,3.07,0,6.15.01,9.2.01,1.47.27,3.45,1.41,4.52l.58-.61h0l-.57.62c1.43,1.43,3.98,1.62,5.66.43,1.11-.75,1.73-2.01,1.89-3.88.1-1.52.09-3.08.08-4.58,0-.87-.01-1.74,0-2.55.01-.2.02-.45.02-.72,0-.29,0-.81.05-1.23.28.41.59.96.78,1.29.13.22.25.43.35.6l3.23,5.82c.78,1.42,1.59,2.89,2.67,3.95,1.24,1.27,3.07,2.12,4.88,2.12,1.11,0,2.21-.32,3.16-1.08,1.66-1.58,1.64-3.7,1.61-5.75,0-.53-.01-1.07,0-1.65v-6.22Z"/>
      <path class="cls-2" d="M42.53,18.33c-.23-1.98-.39-3.95-.47-5.87-.09-3.33-.71-7.45-4.71-9.82-3.34-1.98-9.48-2.98-13.57-1.14-3.72,1.67-4.16,6.08-4.16,9.24-.03,2.18-.02,4.37-.02,6.56l.02,3.45c.04,2.96.08,6.32,2.29,8.57,0,0,.02.02.02.02,1.76,1.82,4.81,2.19,7,2.19.4,0,.78-.01,1.11-.03,5.27-.28,8.87-1.81,10.99-4.66,1.92-2.54,1.84-5.74,1.5-8.53ZM32.84,10.55c0,.65-.43,1.06-.68,1.24-.54.39-1.29.51-1.94.3-.85-.24-1.21-.9-1.26-1.45-.06-.66.27-1.24.94-1.57.27-.15.59-.23.92-.23.4,0,.82.11,1.18.32.32.19.85.61.84,1.34v.04ZM30.01,19.83c.35-.19.78-.29,1.24-.29.53,0,1.08.13,1.54.39.43.24.94.68.97,1.42,0,.69-.42,1.12-.77,1.37-.73.51-1.78.66-2.65.36-.97-.3-1.37-1.01-1.41-1.58-.06-.68.33-1.28,1.09-1.66Z"/>
      <path class="cls-2" d="M63.63,6.4c-.48-.37-1.21-.83-2.18-1.19-.06-.02-1.12-.41-2.28-.49-2.78-.21-5.22,1.36-5.77,1.73,1.63,2.06,3.26,4.12,4.88,6.18,1.78-2.08,3.56-4.15,5.34-6.23Z"/>
      <path class="cls-2" d="M53.44,25.85c.71.42,1.74.91,3.05,1.18,1.86.38,3.32.13,3.73.05,1.24-.24,2.19-.68,2.8-1.03-1.55-2.05-3.09-4.09-4.64-6.14-1.65,1.98-3.29,3.96-4.94,5.95Z"/>
      <path class="cls-2" d="M48.64,11.88c-.38.73-.83,1.78-1.04,3.11-.3,1.87.03,3.33.12,3.73.29,1.22.78,2.15,1.16,2.75,1.97-1.64,3.95-3.28,5.92-4.92-2.06-1.55-4.11-3.11-6.17-4.66Z"/>
      <path class="cls-2" d="M67.76,21.47c.43-.7.94-1.73,1.23-3.03.41-1.85.19-3.32.12-3.73-.22-1.24-.65-2.2-.98-2.81-2.07,1.51-4.15,3.02-6.22,4.53,1.95,1.68,3.9,3.36,5.86,5.04Z"/>
      <path class="cls-2" d="M70.17,8.21c-1.49,1.38-3.23,2.84-5.25,4.29-2.35,1.69-4.6,3.04-6.62,4.1,2.01,1.23,4.18,2.7,6.41,4.45,1.68,1.32,3.19,2.64,4.54,3.91.62-.75,1.41-1.84,2.06-3.29.24-.53,1.02-2.37,1.19-4.73.3-4.23-1.55-7.51-2.33-8.74ZM70.31,16.84c-.12,1.63-.66,2.9-.82,3.27-.45,1-.99,1.76-1.42,2.28-2.52-1.93-5.05-3.86-7.57-5.78,2.74-1.93,5.47-3.87,8.21-5.8.54.85,1.82,3.12,1.61,6.04Z"/>
      <path class="cls-2" d="M58.3,16.6c-1.03,1.78-2.31,3.76-3.92,5.81-1.48,1.89-2.96,3.5-4.33,4.86.76.56,1.89,1.28,3.38,1.85,3.66,1.41,6.83.9,7.48.78,2.85-.5,4.87-1.81,5.91-2.6-1.51-1.32-3.23-3.03-4.94-5.2-1.54-1.97-2.71-3.86-3.6-5.5ZM60.23,28.08c-.48.08-2.76.45-5.4-.56-1.07-.41-1.89-.93-2.44-1.34,1.98-2.57,3.96-5.13,5.95-7.7,2.05,2.57,4.1,5.15,6.15,7.72-.75.57-2.21,1.51-4.26,1.88Z"/>
      <path class="cls-2" d="M60.92,2.16c-.67-.12-3.82-.62-7.48.78-2.11.81-3.61,1.95-4.52,2.75,1.65,1.33,3.56,3.09,5.46,5.35,1.67,1.98,2.94,3.89,3.92,5.57.98-1.69,2.29-3.65,4.01-5.67,1.94-2.27,3.88-4.02,5.56-5.33-.94-.86-3.31-2.81-6.95-3.45ZM51.9,6.45c.64-.6,1.69-1.44,3.16-2.05,2.56-1.06,4.74-.72,5.21-.64,2.53.44,4.16,1.84,4.8,2.47-2.25,2.71-4.5,5.43-6.74,8.14l-6.42-7.91Z"/>
      <path class="cls-2" d="M46.72,8.26c-.77,1.23-2.59,4.52-2.31,8.74.16,2.36.92,4.2,1.15,4.72.63,1.45,1.39,2.54,2,3.28,1.55-1.42,3.26-2.88,5.15-4.36,1.93-1.51,3.81-2.85,5.59-4.04-1.94-1.01-4.14-2.32-6.43-4-2.02-1.48-3.72-2.97-5.15-4.35ZM47.27,20.15c-.16-.37-.71-1.64-.82-3.27-.21-2.92,1.07-5.19,1.61-6.04,2.74,1.93,5.47,3.87,8.21,5.8-2.52,1.93-5.05,3.86-7.57,5.78-.43-.52-.97-1.27-1.42-2.28Z"/>
      <path class="cls-2" d="M29.54,38.27h-1.79v-.85h4.6v.85h-1.79v4.56h-1.01v-4.56Z"/>
      <path class="cls-2" d="M37.91,37.42v5.42h-1.01v-2.32h-2.8v2.32h-1.01v-5.42h1.01v2.24h2.8v-2.24h1.01Z"/>
      <path class="cls-2" d="M43.43,41.99v.84h-4.06v-5.42h3.95v.84h-2.95v1.41h2.61v.83h-2.61v1.49h3.06Z"/>
      <path class="cls-2" d="M50.2,41.58h-2.71l-.53,1.25h-1.04l2.44-5.42h.99l2.44,5.42h-1.05l-.54-1.25ZM49.86,40.79l-1.02-2.37-1.01,2.37h2.03Z"/>
      <path class="cls-2" d="M56.02,42.84l-1.11-1.59c-.07,0-.14,0-.21,0h-1.22v1.58h-1.01v-5.42h2.23c1.42,0,2.31.73,2.31,1.93,0,.82-.42,1.42-1.15,1.71l1.25,1.78h-1.08ZM54.66,38.27h-1.18v2.16h1.18c.88,0,1.34-.4,1.34-1.08s-.46-1.08-1.34-1.08Z"/>
      <path class="cls-2" d="M59.15,38.27h-1.79v-.85h4.6v.85h-1.79v4.56h-1.01v-4.56Z"/>
      <path class="cls-2" d="M64.46,40.13c0-1.6,1.24-2.79,2.92-2.79s2.92,1.18,2.92,2.79-1.24,2.79-2.92,2.79-2.92-1.18-2.92-2.79ZM69.28,40.13c0-1.11-.81-1.9-1.9-1.9s-1.9.8-1.9,1.9.81,1.9,1.9,1.9,1.9-.8,1.9-1.9Z"/>
      <path class="cls-2" d="M72.37,38.26v1.65h2.61v.85h-2.61v2.07h-1.01v-5.42h3.95v.84h-2.95Z"/>
      <path class="cls-2" d="M83.24,37.42v5.42h-1.01v-2.32h-2.8v2.32h-1.01v-5.42h1.01v2.24h2.8v-2.24h1.01Z"/>
      <path class="cls-2" d="M84.31,40.13c0-1.6,1.24-2.79,2.92-2.79s2.92,1.18,2.92,2.79-1.24,2.79-2.92,2.79-2.92-1.18-2.92-2.79ZM89.13,40.13c0-1.11-.81-1.9-1.9-1.9s-1.9.8-1.9,1.9.81,1.9,1.9,1.9,1.9-.8,1.9-1.9Z"/>
      <path class="cls-2" d="M96.18,42.84v-3.59s-1.79,2.97-1.79,2.97h-.45l-1.78-2.92v3.54h-.96v-5.42h.83l2.15,3.59,2.11-3.59h.83v5.42s-.94,0-.94,0Z"/>
      <path class="cls-2" d="M102.66,41.99v.84h-4.06v-5.42h3.95v.84h-2.95v1.41h2.61v.83h-2.61v1.49h3.06Z"/>
    </g>
  </g>
</svg>