<?xml version="1.0" encoding="UTF-8"?>
<svg id="Calque_2" data-name="Calque 2" xmlns="http://www.w3.org/2000/svg" viewBox="0 0 1898.46 161.3">
  <defs>
    <style>
      .cls-1 {
        fill: #265d9a;
      }
    </style>
  </defs>
  <g id="Calque_1-2" data-name="Calque 1">
    <g>
      <path class="cls-1" d="M335.58,159.47s0-5.98,2.57-11.03v-9.2h-3.21l-4.83-2.3h-4.81s-.64-6.9,5.14-14.71c0,0-.64-4.14,0-10.11l4.5-2.76,1.93,2.76-.64,1.88.64,5.48s.64,5.06.64,6.9c0,0,1.28,5.06,3.85,9.2,0,0,5.14-1.38,9.63-3.22l5.78-1.84s1.28-3.22,1.28-8.28c0,0,0-5.52.64-10.57,0,0,0-5.06,3.85-8.28l2.57-2.76-2.57,8.74,2.57,9.19s-.64,5.52-2.57,10.11c0,0,.64,2.76,0,5.52l-3.21,2.3s-.64,4.14-.64,8.88v6.29l1.81-2.16,2.04-2.43s1.43-2.3,3.75-5c-1.39-.1-2.84-.14-3.83-.75-2.87-2-.56-5.16,3.58-4.36,3.21.18,7.15.96,9.88,1.82,2.48.8,2.75-.15,2.44-1.44-.74-5.76-2.88-15.51-3.23-21.89-.09-2.4.22-4.9-.46-7.25-.67-2.22-2.42-4.5-2.82-6.9-.53-6.63-.03-13.04-1.31-19.65-.14-7.3.72-14.51.41-21.84.25-8.54-1.38-17.1-2.93-25.56l-.49,1.33-.64,16.09-3.72,2.3-.14,2.76-3.85,4.14-3.21,2.3c3.21,6.44,3.21,9.65,3.21,9.65,3.21-4.6,3.85-7.67,3.85-7.67l3.21-1.99,4.13,7.36v14.71l-2.84,5.98h-7.71c-8.35,3.68-8.35,0-8.35,0v-26.06l2.57-8.99c-3.85,1.94-2.57,4.24-2.57,4.24,0,4.75-4.5,19.31-4.5,19.31l-3.9,5.98,3.9,10.11c3.21,6.44,4.5,16.09,4.5,16.09v9.65l-8.4-4.6c-5.09-6.9-3.16-16.09-3.16-16.09l-3.85-5.52c-1.28-3.22-5.78-5.98-5.78-5.98-5.14-5.52-6.42-9.19-6.42-9.19v-6.9l12.2,5.98c0-5.98-1.28-8.74-1.28-8.74-3.21-6.9-7.71-10.11-7.71-10.11l12.85-.92c-10.28-5.52-12.85-7.36-12.85-7.36-.64-4.14,0-5.98,0-5.98.64-4.6,0-6.9,0-6.9,1.93-5.06,0-8.74,0-8.74,5.14-4.6,9.63,3.25,9.63,3.25,1.28,9.16,3.21,15.6,3.21,15.6l3.16,2.3,8.4-2.3-3.2-7.73,10.27,10.03-2.57-17.89,1.28-6.93c3.85-5.98,5.78-7.36,5.78-7.36l3.35,3.77c-.08-6.48-.37-12.93-.49-19.47-.23-.85-.59-1.68-1.01-2.51-.92-.22-1.87-.67-2.66-1.29h-16.98l1.3,3.96s1.28,5.98,0,11.81c0,0-3.85,3.82-8.35,5.66,0,0-3.85,0-7.71,4.6h-8.35v-4.6l-4.17-14.71s.4-3.28,1.15-6.72h-20.05c-.04,4.78.17,9.54,2.51,14.07.96,4.24,2.13,8.53,3.43,12.63.24,3.03-2.16,6.93,1.48,9.29,2.92,2.56,10.31-.45,11.2,3.59.5,4.51-.6,8.13-.17,12.86-.07,3.7.77,8.03.16,11.56-1.69-.36-3.47-3.17-5.59-2.52-1.74,1.4-1.16,8.37,0,10.04,5.16,5.37,5.66,4.05,1.54,10.27-2.34,5.63-3.74,11.59-6.35,17.1-3.6,6.7-6.1,13.15-5.25,20.25.3,2.89.38,5.95.95,8.75,3.71,7.33,11.28,3.4,12.41,17.89.97,4.67,3.49,10.28,5.32,15.5h15.09c-.09-.61-.17-1.23-.23-1.83ZM360.65,5.72c2.17.16,3.31,2.45,3.49,2.82.97,2.03.71,4.94-.86,5.9-2.21,1.34-7.14-1.06-7.23-4.21-.06-2.19,2.21-4.69,4.6-4.51ZM328.84,100.63c2.17.16,3.31,2.45,3.49,2.82.97,2.03.71,4.94-.86,5.9-2.21,1.34-7.14-1.06-7.23-4.21-.06-2.19,2.21-4.69,4.6-4.51ZM317.98,129.33c-2.21,1.34-7.14-1.06-7.23-4.21-.06-2.19,2.21-4.69,4.6-4.51,2.17.16,3.31,2.45,3.49,2.82.97,2.03.71,4.94-.86,5.9ZM317.98,114.27c-2.21,1.34-7.14-1.06-7.23-4.21-.06-2.19,2.21-4.69,4.6-4.51,2.17.16,3.31,2.45,3.49,2.82.97,2.03.71,4.94-.86,5.9ZM317.98,93.44c-.06-2.19,2.21-4.69,4.6-4.51,2.17.16,3.31,2.45,3.49,2.82.97,2.03.71,4.94-.86,5.9-2.21,1.34-7.14-1.06-7.23-4.21ZM329.54,150.28c-2.21,1.34-7.14-1.06-7.23-4.21-.06-2.19,2.21-4.69,4.6-4.51,2.17.16,3.31,2.45,3.49,2.82.97,2.03.71,4.94-.86,5.9Z"/>
      <path class="cls-1" d="M326.65,2.12v7.75l4.5,8.65s-.64,1.99,3.21,2.91l3.85-2.91v-8.65s-2.7-4.8-5.09-9.87h-7.06l.59,2.12Z"/>
      <path class="cls-1" d="M311.2,155.45c-.42-3.54.69-8.29-.56-11.71-.97-1.11-3.28-1.43-5.01-1.52-5.05-.1-1.76,6.51-1.84,8.66.58,2.74,2.36,5.31,2.91,8.02.07.8.13,1.6.17,2.4h9.06c-1.99-1.87-4.65-3.29-4.74-5.85Z"/>
      <path class="cls-1" d="M288.54,161.3c-.09-2.09-.62-4.47-1.65-7.94-1.34-3.23-.56-9.06-4.24-10.91-.95-.34-2.18-.36-3.37-.45v3.37s-1.28,1.23,0,4.45c0,0-1.28,3.22,0,7.13v4.36h9.26Z"/>
      <path class="cls-1" d="M370.96,3.24c0,5.33,0,11.1,0,16.47-.2,5.84,4.33,11.72,4.53,17.49.06,18.43,0,36.98.03,55.42.23,5.56,2.5,12.53,3.45,17.96,2,8.03,3.06,18.77,5.52,26.04.74.7,2.28.9,2.97.27,1.24-1.89-1.51-4.22-2.18-6.12-1.48-2.6-.88-5.64-1-8.47-.65-12.42,6.02-26.18,4.87-39.17.16-5.05-2.17-9.77-3.04-14.75-.5-5.84-.08-11.76-.22-17.62-.71-10.12-3.36-20.63-2.6-30.69-.36-6.66-2.82-13.35-3.73-20.06h-8.87c.19,1.05.29,2.12.25,3.24Z"/>
      <path class="cls-1" d="M460.05,3.24c0,5.33,0,11.1,0,16.47-.2,5.84,4.33,11.72,4.53,17.49.06,18.43,0,36.98.03,55.42.23,5.56,2.5,12.53,3.45,17.96,2,8.03,3.06,18.77,5.52,26.04.74.7,2.28.9,2.97.27,1.24-1.89-1.51-4.22-2.18-6.12-1.48-2.6-.88-5.64-1-8.47-.65-12.42,6.02-26.18,4.87-39.17.16-5.05-2.17-9.77-3.04-14.75-.5-5.84-.08-11.76-.22-17.62-.71-10.12-3.36-20.63-2.6-30.69-.36-6.66-2.82-13.35-3.73-20.06h-8.87c.19,1.05.29,2.12.25,3.24Z"/>
      <path class="cls-1" d="M412.73,2.12v7.75l4.5,8.65s-.64,1.99,3.21,2.91l3.85-2.91v-8.65s-2.7-4.8-5.09-9.87h-7.06l.59,2.12Z"/>
      <path class="cls-1" d="M22.6,142.46c-2.25-2.36-8.16-.58-7.67,2.25.08,5.24,3.44,11.2,4.01,16.51,0,.03-.01.05-.02.08h6.59c-.56-1.54-1-3.23-1.01-5.22-.9-4.59-.25-9.27-1.9-13.61Z"/>
      <path class="cls-1" d="M421.66,159.47s0-5.98,2.57-11.03v-9.2h-3.21l-4.83-2.3h-4.81s-.64-6.9,5.14-14.71c0,0-.64-4.14,0-10.11l4.5-2.76,1.93,2.76-.64,1.88.64,5.48s.64,5.06.64,6.9c0,0,1.28,5.06,3.85,9.2,0,0,5.14-1.38,9.63-3.22l5.78-1.84s1.28-3.22,1.28-8.28c0,0,0-5.52.64-10.57,0,0,0-5.06,3.85-8.28l2.57-2.76-2.57,8.74,2.57,9.19s-.64,5.52-2.57,10.11c0,0,.64,2.76,0,5.52l-3.21,2.3s-.64,4.14-.64,8.88v6.29l1.81-2.16,2.04-2.43s1.55-2.49,4.04-5.32c-.4-.1-.78-.22-1.09-.42-2.87-2-.56-5.16,3.58-4.36,3.21.18,7.15.96,9.88,1.82,2.48.8,2.75-.15,2.44-1.44-.74-5.76-2.88-15.51-3.23-21.89-.09-2.4.22-4.9-.46-7.25-.67-2.22-2.42-4.5-2.82-6.9-.53-6.63-.03-13.04-1.31-19.65-.14-7.3.72-14.51.41-21.84.3-10.42-2.19-20.87-3.92-31.15l-2.52,6.92-.64,16.09-3.72,2.3-.14,2.76-3.85,4.14-3.21,2.3c3.21,6.44,3.21,9.65,3.21,9.65,3.21-4.6,3.85-7.67,3.85-7.67l3.21-1.99,4.13,7.36v14.71l-2.84,5.98h-7.71c-8.35,3.68-8.35,0-8.35,0v-26.06l2.57-8.99c-3.85,1.94-2.57,4.24-2.57,4.24,0,4.75-4.5,19.31-4.5,19.31l-3.9,5.98,3.9,10.11c3.21,6.44,4.5,16.09,4.5,16.09v9.65l-8.4-4.6c-5.09-6.9-3.16-16.09-3.16-16.09l-3.85-5.52c-1.28-3.22-5.78-5.98-5.78-5.98-5.14-5.52-6.42-9.19-6.42-9.19v-6.9l12.2,5.98c0-5.98-1.28-8.74-1.28-8.74-3.21-6.9-7.71-10.11-7.71-10.11l12.85-.92c-10.28-5.52-12.85-7.36-12.85-7.36-.64-4.14,0-5.98,0-5.98.64-4.6,0-6.9,0-6.9,1.93-5.06,0-8.74,0-8.74,5.14-4.6,9.63,3.25,9.63,3.25,1.28,9.16,3.21,15.6,3.21,15.6l3.16,2.3,8.4-2.3-3.2-7.73,10.27,10.03-2.57-17.89,1.28-6.93c3.85-5.98,5.78-7.36,5.78-7.36l6.76,7.62c-.13-.8-.25-1.6-.37-2.4-.05-6.96-.38-13.89-.51-20.92-.26-.97-.69-1.92-1.19-2.86-.05.03-.08.08-.14.11-1.35.82-3.71.24-5.37-1.05h-16.98l1.3,3.96s1.28,5.98,0,11.81c0,0-3.85,3.82-8.35,5.66,0,0-3.85,0-7.71,4.6h-8.35v-4.6l-4.17-14.71s.4-3.28,1.15-6.72h-20.05c-.04,4.78.16,9.54,2.51,14.07.96,4.24,2.13,8.53,3.43,12.63.24,3.03-2.16,6.93,1.48,9.29,2.92,2.56,10.31-.45,11.2,3.59.5,4.51-.6,8.13-.17,12.86-.07,3.7.77,8.03.16,11.56-1.69-.36-3.47-3.17-5.59-2.52-1.74,1.4-1.16,8.37,0,10.04,5.16,5.37,5.66,4.05,1.54,10.27-2.34,5.63-3.74,11.59-6.35,17.1-3.6,6.7-6.1,13.15-5.25,20.25.3,2.89.38,5.95.95,8.75,3.71,7.33,11.28,3.4,12.41,17.89.97,4.67,3.49,10.28,5.32,15.5h15.09c-.09-.61-.17-1.23-.23-1.83ZM446.73,5.72c2.17.16,3.31,2.45,3.49,2.82.97,2.03.71,4.94-.86,5.9-2.21,1.34-7.14-1.06-7.23-4.21-.06-2.19,2.21-4.69,4.6-4.51ZM414.91,100.63c2.17.16,3.31,2.45,3.49,2.82.97,2.03.71,4.94-.86,5.9-2.21,1.34-7.14-1.06-7.23-4.21-.06-2.19,2.21-4.69,4.6-4.51ZM404.05,129.33c-2.21,1.34-7.14-1.06-7.23-4.21-.06-2.19,2.21-4.69,4.6-4.51,2.17.16,3.31,2.45,3.49,2.82.97,2.03.71,4.94-.86,5.9ZM404.05,114.27c-2.21,1.34-7.14-1.06-7.23-4.21-.06-2.19,2.21-4.69,4.6-4.51,2.17.16,3.31,2.45,3.49,2.82.97,2.03.71,4.94-.86,5.9ZM404.06,93.44c-.06-2.19,2.21-4.69,4.6-4.51,2.17.16,3.31,2.45,3.49,2.82.97,2.03.71,4.94-.86,5.9-2.21,1.34-7.14-1.06-7.23-4.21ZM415.62,150.28c-2.21,1.34-7.14-1.06-7.23-4.21-.06-2.19,2.21-4.69,4.6-4.51,2.17.16,3.31,2.45,3.49,2.82.97,2.03.71,4.94-.86,5.9Z"/>
      <path class="cls-1" d="M374.62,161.3c-.09-2.09-.62-4.47-1.65-7.94-1.31-3.15-.61-8.76-3.99-10.75v2.76s-1.28,1.23,0,4.45c0,0-1.28,3.22,0,7.13v4.36h5.64Z"/>
      <path class="cls-1" d="M397.28,155.45c-.42-3.54.69-8.29-.56-11.71-.97-1.11-3.28-1.43-5.01-1.52-5.05-.1-1.76,6.51-1.84,8.66.58,2.74,2.36,5.31,2.91,8.02.07.8.13,1.6.17,2.4h9.06c-1.99-1.87-4.65-3.29-4.74-5.85Z"/>
      <path class="cls-1" d="M284.88,3.24c0,5.33,0,11.1,0,16.47-.2,5.84,4.33,11.72,4.53,17.49.06,18.43,0,36.98.03,55.42.23,5.56,2.5,12.53,3.45,17.96,2,8.03,3.06,18.77,5.52,26.04.74.7,2.28.9,2.97.27,1.24-1.89-1.51-4.22-2.18-6.12-1.48-2.6-.88-5.64-1-8.47-.65-12.42,6.02-26.18,4.87-39.17.16-5.05-2.17-9.77-3.04-14.75-.5-5.84-.08-11.76-.22-17.62-.71-10.12-3.36-20.63-2.6-30.69-.36-6.66-2.82-13.35-3.73-20.06h-8.87c.19,1.05.29,2.12.25,3.24Z"/>
      <path class="cls-1" d="M52.46,2.12v7.75l4.5,8.65s-.64,1.99,3.21,2.91l3.85-2.91v-8.65s-2.7-4.8-5.09-9.87h-7.06l.59,2.12Z"/>
      <path class="cls-1" d="M99.79,3.24c0,5.33,0,11.1,0,16.47-.2,5.84,4.33,11.72,4.53,17.49.06,18.43,0,36.98.03,55.42.23,5.56,2.5,12.53,3.45,17.96,2,8.03,3.06,18.77,5.52,26.04.74.7,2.28.9,2.97.27,1.24-1.89-1.51-4.22-2.18-6.12-1.48-2.6-.88-5.64-1-8.47-.65-12.42,6.02-26.18,4.87-39.17.16-5.05-2.17-9.77-3.04-14.75-.5-5.84-.08-11.76-.22-17.62-.71-10.12-3.36-20.63-2.6-30.69-.36-6.66-2.82-13.35-3.73-20.06h-8.87c.19,1.05.29,2.12.25,3.24Z"/>
      <path class="cls-1" d="M236.95,2.12v7.75l4.5,8.65s-.64,1.99,3.21,2.91l3.85-2.91v-8.65s-2.7-4.8-5.09-9.87h-7.06l.59,2.12Z"/>
      <path class="cls-1" d="M103.45,161.3c-.09-2.09-.62-4.47-1.65-7.94-1.34-3.23-.56-9.06-4.24-10.91-.79-.28-1.78-.34-2.77-.41v3.33s-1.28,1.23,0,4.45c0,0-1.28,3.22,0,7.13v4.36h8.66Z"/>
      <path class="cls-1" d="M15.25,92.6c.23,5.56,2.5,12.53,3.45,17.96,2,8.03,3.06,18.77,5.52,26.04.74.7,2.28.9,2.97.27,1.24-1.89-1.51-4.22-2.18-6.12-1.48-2.6-.88-5.64-1-8.47-.65-12.42,6.02-26.18,4.87-39.17.16-5.05-2.17-9.77-3.04-14.75-.5-5.84-.08-11.76-.22-17.62-.71-10.12-3.36-20.63-2.6-30.69-.36-6.66-2.82-13.35-3.73-20.06h-8.87c.19,1.05.29,2.12.25,3.24,0,5.33,0,11.1,0,16.47-.2,5.84,4.33,11.72,4.53,17.49.06,18.43,0,36.98.03,55.42Z"/>
      <path class="cls-1" d="M61.4,159.47s0-5.98,2.57-11.03v-9.2h-3.21l-4.83-2.3h-4.81s-.64-6.9,5.14-14.71c0,0-.64-4.14,0-10.11l4.5-2.76,1.93,2.76-.64,1.88.64,5.48s.64,5.06.64,6.9c0,0,1.28,5.06,3.85,9.2,0,0,5.14-1.38,9.63-3.22l5.78-1.84s1.28-3.22,1.28-8.28c0,0,0-5.52.64-10.57,0,0,0-5.06,3.85-8.28l2.57-2.76-2.57,8.74,2.57,9.19s-.64,5.52-2.57,10.11c0,0,.64,2.76,0,5.52l-3.21,2.3s-.64,4.14-.64,8.88v6.29l1.81-2.16,2.04-2.43s1.55-2.49,4.04-5.32c-.4-.1-.78-.22-1.09-.42-2.87-2-.56-5.16,3.58-4.36,3.21.18,7.15.96,9.88,1.82,2.48.8,2.75-.15,2.44-1.44-.74-5.76-2.88-15.51-3.23-21.89-.09-2.4.22-4.9-.46-7.25-.67-2.22-2.42-4.5-2.82-6.9-.53-6.63-.03-13.04-1.31-19.65-.14-7.3.72-14.51.41-21.84.3-10.42-2.19-20.87-3.92-31.15l-2.52,6.92-.64,16.09-3.72,2.3-.14,2.76-3.85,4.14-3.21,2.3c3.21,6.44,3.21,9.65,3.21,9.65,3.21-4.6,3.85-7.67,3.85-7.67l3.21-1.99,4.13,7.36v14.71l-2.84,5.98h-7.71c-8.35,3.68-8.35,0-8.35,0v-26.06l2.57-8.99c-3.85,1.94-2.57,4.24-2.57,4.24,0,4.75-4.5,19.31-4.5,19.31l-3.9,5.98,3.9,10.11c3.21,6.44,4.5,16.09,4.5,16.09v9.65l-8.4-4.6c-5.09-6.9-3.16-16.09-3.16-16.09l-3.85-5.52c-1.28-3.22-5.78-5.98-5.78-5.98-5.14-5.52-6.42-9.19-6.42-9.19v-6.9l12.2,5.98c0-5.98-1.28-8.74-1.28-8.74-3.21-6.9-7.71-10.11-7.71-10.11l12.85-.92c-10.28-5.52-12.85-7.36-12.85-7.36-.64-4.14,0-5.98,0-5.98.64-4.6,0-6.9,0-6.9,1.93-5.06,0-8.74,0-8.74,5.14-4.6,9.63,3.25,9.63,3.25,1.28,9.16,3.21,15.6,3.21,15.6l3.16,2.3,8.4-2.3-3.2-7.73,10.27,10.03-2.57-17.89,1.28-6.93c3.85-5.98,5.78-7.36,5.78-7.36l6.76,7.62c-.13-.8-.25-1.6-.37-2.4-.05-6.96-.38-13.89-.51-20.92-.26-.97-.69-1.92-1.19-2.86-.05.03-.08.08-.14.11-1.35.82-3.71.24-5.37-1.05h-16.98l1.3,3.96s1.28,5.98,0,11.81c0,0-3.85,3.82-8.35,5.66,0,0-3.85,0-7.71,4.6h-8.35v-4.6l-4.17-14.71s.4-3.28,1.15-6.72h-20.05c-.04,4.78.16,9.54,2.51,14.07.96,4.24,2.13,8.53,3.43,12.63.24,3.03-2.16,6.93,1.48,9.29,2.92,2.56,10.31-.45,11.2,3.59.5,4.51-.6,8.13-.17,12.86-.07,3.7.77,8.03.16,11.56-1.69-.36-3.47-3.17-5.59-2.52-1.74,1.4-1.16,8.37,0,10.04,5.16,5.37,5.66,4.05,1.54,10.27-2.34,5.63-3.74,11.59-6.35,17.1-3.6,6.7-6.1,13.15-5.25,20.25.3,2.89.38,5.95.95,8.75,3.71,7.33,11.28,3.4,12.41,17.89.97,4.67,3.49,10.28,5.32,15.5h15.09c-.09-.61-.17-1.23-.23-1.83ZM86.46,5.72c2.17.16,3.31,2.45,3.49,2.82.97,2.03.71,4.94-.86,5.9-2.21,1.34-7.14-1.06-7.23-4.21-.06-2.19,2.21-4.69,4.6-4.51ZM54.65,100.63c2.17.16,3.31,2.45,3.49,2.82.97,2.03.71,4.94-.86,5.9-2.21,1.34-7.14-1.06-7.23-4.21-.06-2.19,2.21-4.69,4.6-4.51ZM43.79,129.33c-2.21,1.34-7.14-1.06-7.23-4.21-.06-2.19,2.21-4.69,4.6-4.51,2.17.16,3.31,2.45,3.49,2.82.97,2.03.71,4.94-.86,5.9ZM43.79,114.27c-2.21,1.34-7.14-1.06-7.23-4.21-.06-2.19,2.21-4.69,4.6-4.51,2.17.16,3.31,2.45,3.49,2.82.97,2.03.71,4.94-.86,5.9ZM43.79,93.44c-.06-2.19,2.21-4.69,4.6-4.51,2.17.16,3.31,2.45,3.49,2.82.97,2.03.71,4.94-.86,5.9-2.21,1.34-7.14-1.06-7.23-4.21ZM55.35,150.28c-2.21,1.34-7.14-1.06-7.23-4.21-.06-2.19,2.21-4.69,4.6-4.51,2.17.16,3.31,2.45,3.49,2.82.97,2.03.71,4.94-.86,5.9Z"/>
      <path class="cls-1" d="M245.88,159.47s0-5.98,2.57-11.03v-9.2h-3.21l-4.83-2.3h-4.81s-.64-6.9,5.14-14.71c0,0-.64-4.14,0-10.11l4.5-2.76,1.93,2.76-.64,1.88.64,5.48s.64,5.06.64,6.9c0,0,1.28,5.06,3.85,9.2,0,0,5.14-1.38,9.63-3.22l5.78-1.84s1.28-3.22,1.28-8.28c0,0,0-5.52.64-10.57,0,0,0-5.06,3.85-8.28l2.57-2.76-2.57,8.74,2.57,9.19s-.64,5.52-2.57,10.11c0,0,.64,2.76,0,5.52l-3.21,2.3s-.64,4.14-.64,8.88v6.29l1.81-2.16,2.04-2.43s1.6-2.57,4.16-5.46c-.22-.08-.42-.17-.61-.28-2.87-2-.56-5.16,3.58-4.36,3.21.18,7.15.96,9.88,1.82,2.48.8,2.75-.15,2.44-1.44-.74-5.76-2.88-15.51-3.23-21.89-.09-2.4.22-4.9-.46-7.25-.67-2.22-2.42-4.5-2.82-6.9-.53-6.63-.03-13.04-1.31-19.65-.14-7.3.72-14.51.41-21.84.34-11.76-2.87-23.55-4.54-35.1-.05-6.96-.38-13.89-.51-20.92-.3-1.09-.8-2.16-1.38-3.22-.16.19-.34.35-.55.48-1.35.82-3.71.24-5.37-1.05h-16.98l1.3,3.96s1.28,5.98,0,11.81c0,0-3.85,3.82-8.35,5.66,0,0-3.85,0-7.71,4.6h-8.35v-4.6l-4.17-14.71s.4-3.28,1.15-6.72h-20.05c-.04,4.78.17,9.54,2.51,14.07.96,4.24,2.13,8.53,3.43,12.63.24,3.03-2.16,6.93,1.48,9.29,2.92,2.56,10.31-.45,11.2,3.59.5,4.51-.6,8.13-.17,12.86-.07,3.7.77,8.03.16,11.56-1.69-.36-3.47-3.17-5.59-2.52-1.74,1.4-1.16,8.37,0,10.04,5.16,5.37,5.66,4.05,1.54,10.27-2.34,5.63-3.74,11.59-6.35,17.1-3.6,6.7-6.1,13.15-5.25,20.25.3,2.89.38,5.95.95,8.75,3.71,7.33,11.28,3.4,12.41,17.89.97,4.67,3.49,10.28,5.32,15.5h15.09c-.09-.61-.17-1.23-.23-1.83ZM241.76,109.35c-2.21,1.34-7.14-1.06-7.23-4.21-.06-2.19,2.21-4.69,4.6-4.51,2.17.16,3.31,2.45,3.49,2.82.97,2.03.71,4.94-.86,5.9ZM270.95,5.72c2.17.16,3.31,2.45,3.49,2.82.97,2.03.71,4.94-.86,5.9-2.21,1.34-7.14-1.06-7.23-4.21-.06-2.19,2.21-4.69,4.6-4.51ZM234.17,73.28l12.2,5.98c0-5.98-1.28-8.74-1.28-8.74-3.21-6.9-7.71-10.11-7.71-10.11l12.85-.92c-10.28-5.52-12.85-7.36-12.85-7.36-.64-4.14,0-5.98,0-5.98.64-4.6,0-6.9,0-6.9,1.93-5.06,0-8.74,0-8.74,5.14-4.6,9.63,3.25,9.63,3.25,1.28,9.16,3.21,15.6,3.21,15.6l3.16,2.3,8.4-2.3-3.2-7.73,10.27,10.03-2.57-17.89,1.28-6.93c3.85-5.98,5.78-7.36,5.78-7.36l7.34,8.28-2.84,7.82-.64,16.09-3.72,2.3-.14,2.76-3.85,4.14-3.21,2.3c3.21,6.44,3.21,9.65,3.21,9.65,3.21-4.6,3.85-7.67,3.85-7.67l3.21-1.99,4.13,7.36v14.71l-2.84,5.98h-7.71c-8.35,3.68-8.35,0-8.35,0v-26.06l2.57-8.99c-3.85,1.94-2.57,4.24-2.57,4.24,0,4.75-4.5,19.31-4.5,19.31l-3.9,5.98,3.9,10.11c3.21,6.44,4.5,16.09,4.5,16.09v9.65l-8.4-4.6c-5.09-6.9-3.16-16.09-3.16-16.09l-3.85-5.52c-1.28-3.22-5.78-5.98-5.78-5.98-5.14-5.52-6.42-9.19-6.42-9.19v-6.9ZM228.28,129.33c-2.21,1.34-7.14-1.06-7.23-4.21-.06-2.19,2.21-4.69,4.6-4.51,2.17.16,3.31,2.45,3.49,2.82.97,2.03.71,4.94-.86,5.9ZM228.28,114.27c-2.21,1.34-7.14-1.06-7.23-4.21-.06-2.19,2.21-4.69,4.6-4.51,2.17.16,3.31,2.45,3.49,2.82.97,2.03.71,4.94-.86,5.9ZM228.28,93.44c-.06-2.19,2.21-4.69,4.6-4.51,2.17.16,3.31,2.45,3.49,2.82.97,2.03.71,4.94-.86,5.9-2.21,1.34-7.14-1.06-7.23-4.21ZM239.84,150.28c-2.21,1.34-7.14-1.06-7.23-4.21-.06-2.19,2.21-4.69,4.6-4.51,2.17.16,3.31,2.45,3.49,2.82.97,2.03.71,4.94-.86,5.9Z"/>
      <path class="cls-1" d="M221.5,155.45c-.42-3.54.69-8.29-.56-11.71-.97-1.11-3.28-1.43-5.01-1.52-5.05-.1-1.76,6.51-1.84,8.66.58,2.74,2.36,5.31,2.91,8.02.07.8.13,1.6.17,2.4h9.06c-1.99-1.87-4.65-3.29-4.74-5.85Z"/>
      <path class="cls-1" d="M195.19,19.7c-.2,5.84,4.33,11.72,4.53,17.49.06,18.43,0,36.98.03,55.42.23,5.56,2.5,12.53,3.45,17.96,2,8.03,3.06,18.77,5.52,26.04.74.7,2.28.9,2.97.27,1.24-1.89-1.51-4.22-2.18-6.12-1.48-2.6-.88-5.64-1-8.47-.65-12.42,6.02-26.18,4.87-39.17.16-5.05-2.17-9.77-3.04-14.75-.5-5.84-.08-11.76-.22-17.62-.71-10.12-3.36-20.63-2.6-30.69-.36-6.66-2.82-13.35-3.73-20.06h-8.87c.19,1.05.29,2.12.25,3.24,0,5.33,0,11.1,0,16.47Z"/>
      <path class="cls-1" d="M126.11,155.45c-.42-3.54.69-8.29-.56-11.71-.97-1.11-3.28-1.43-5.01-1.52-5.05-.1-1.76,6.51-1.84,8.66.58,2.74,2.36,5.31,2.91,8.02.07.8.13,1.6.17,2.4h9.06c-1.99-1.87-4.65-3.29-4.74-5.85Z"/>
      <path class="cls-1" d="M141.56,2.12v7.75l4.5,8.65s-.64,1.99,3.21,2.91l3.85-2.91v-8.65s-2.7-4.8-5.09-9.87h-7.06l.59,2.12Z"/>
      <path class="cls-1" d="M463.71,161.3c-.09-2.09-.62-4.47-1.65-7.94-1.34-3.23-.56-9.06-4.24-10.91-.79-.28-1.78-.34-2.77-.41v3.33s-1.28,1.23,0,4.45c0,0-1.28,3.22,0,7.13v4.36h8.66Z"/>
      <path class="cls-1" d="M486.37,155.45c-.42-3.54.69-8.29-.56-11.71-.97-1.11-3.28-1.43-5.01-1.52-5.05-.1-1.76,6.51-1.84,8.66.58,2.74,2.36,5.31,2.91,8.02.07.8.13,1.6.17,2.4h9.06c-1.99-1.87-4.65-3.29-4.74-5.85Z"/>
      <path class="cls-1" d="M819.16,3.24c0,5.33,0,11.1,0,16.47-.2,5.84,4.33,11.72,4.53,17.49.06,18.43,0,36.98.03,55.42.23,5.56,2.5,12.53,3.45,17.96,2,8.03,3.06,18.77,5.52,26.04.74.7,2.28.9,2.97.27,1.24-1.89-1.51-4.22-2.18-6.12-1.48-2.6-.88-5.64-1-8.47-.65-12.42,6.02-26.18,4.87-39.17.16-5.05-2.17-9.77-3.04-14.75-.5-5.84-.08-11.76-.22-17.62-.71-10.12-3.36-20.63-2.6-30.69-.36-6.66-2.82-13.35-3.73-20.06h-8.87c.19,1.05.29,2.12.25,3.24Z"/>
      <path class="cls-1" d="M780.76,159.47s0-5.98,2.57-11.03v-9.2h-3.21l-4.83-2.3h-4.81s-.64-6.9,5.14-14.71c0,0-.64-4.14,0-10.11l4.5-2.76,1.93,2.76-.64,1.88.64,5.48s.64,5.06.64,6.9c0,0,1.28,5.06,3.85,9.2,0,0,5.14-1.38,9.63-3.22l5.78-1.84s1.28-3.22,1.28-8.28c0,0,0-5.52.64-10.57,0,0,0-5.06,3.85-8.28l2.57-2.76-2.57,8.74,2.57,9.19s-.64,5.52-2.57,10.11c0,0,.64,2.76,0,5.52l-3.21,2.3s-.64,4.14-.64,8.88v6.29l1.81-2.16,2.04-2.43s1.55-2.49,4.04-5.32c-.4-.1-.78-.22-1.09-.42-2.87-2-.56-5.16,3.58-4.36,3.21.18,7.15.96,9.88,1.82,2.48.8,2.75-.15,2.44-1.44-.74-5.76-2.88-15.51-3.23-21.89-.09-2.4.22-4.9-.46-7.25-.67-2.22-2.42-4.5-2.82-6.9-.53-6.63-.03-13.04-1.31-19.65-.14-7.3.72-14.51.41-21.84.3-10.42-2.19-20.87-3.92-31.15l-2.52,6.92-.64,16.09-3.72,2.3-.14,2.76-3.85,4.14-3.21,2.3c3.21,6.44,3.21,9.65,3.21,9.65,3.21-4.6,3.85-7.67,3.85-7.67l3.21-1.99,4.13,7.36v14.71l-2.84,5.98h-7.71c-8.35,3.68-8.35,0-8.35,0v-26.06l2.57-8.99c-3.85,1.94-2.57,4.24-2.57,4.24,0,4.75-4.5,19.31-4.5,19.31l-3.9,5.98,3.9,10.11c3.21,6.44,4.5,16.09,4.5,16.09v9.65l-8.4-4.6c-5.09-6.9-3.16-16.09-3.16-16.09l-3.85-5.52c-1.28-3.22-5.78-5.98-5.78-5.98-5.14-5.52-6.42-9.19-6.42-9.19v-6.9l12.2,5.98c0-5.98-1.28-8.74-1.28-8.74-3.21-6.9-7.71-10.11-7.71-10.11l12.85-.92c-10.28-5.52-12.85-7.36-12.85-7.36-.64-4.14,0-5.98,0-5.98.64-4.6,0-6.9,0-6.9,1.93-5.06,0-8.74,0-8.74,5.14-4.6,9.63,3.25,9.63,3.25,1.28,9.16,3.21,15.6,3.21,15.6l3.16,2.3,8.4-2.3-3.2-7.73,10.27,10.03-2.57-17.89,1.28-6.93c3.85-5.98,5.78-7.36,5.78-7.36l6.76,7.62c-.13-.8-.25-1.6-.37-2.4-.05-6.96-.38-13.89-.51-20.92-.26-.97-.69-1.92-1.19-2.86-.05.03-.08.08-.14.11-1.35.82-3.71.24-5.37-1.05h-16.98l1.3,3.96s1.28,5.98,0,11.81c0,0-3.85,3.82-8.35,5.66,0,0-3.85,0-7.71,4.6h-8.35v-4.6l-4.17-14.71s.4-3.28,1.15-6.72h-20.05c-.04,4.78.16,9.54,2.51,14.07.96,4.24,2.13,8.53,3.43,12.63.24,3.03-2.16,6.93,1.48,9.29,2.92,2.56,10.31-.45,11.2,3.59.5,4.51-.6,8.13-.17,12.86-.07,3.7.77,8.03.16,11.56-1.69-.36-3.47-3.17-5.59-2.52-1.74,1.4-1.16,8.37,0,10.04,5.16,5.37,5.66,4.05,1.54,10.27-2.34,5.63-3.74,11.59-6.35,17.1-3.6,6.7-6.1,13.15-5.25,20.25.3,2.89.38,5.95.95,8.75,3.71,7.33,11.28,3.4,12.41,17.89.97,4.67,3.49,10.28,5.32,15.5h15.09c-.09-.61-.17-1.23-.23-1.83ZM805.83,5.72c2.17.16,3.31,2.45,3.49,2.82.97,2.03.71,4.94-.86,5.9-2.21,1.34-7.14-1.06-7.23-4.21-.06-2.19,2.21-4.69,4.6-4.51ZM774.01,100.63c2.17.16,3.31,2.45,3.49,2.82.97,2.03.71,4.94-.86,5.9-2.21,1.34-7.14-1.06-7.23-4.21-.06-2.19,2.21-4.69,4.6-4.51ZM763.16,129.33c-2.21,1.34-7.14-1.06-7.23-4.21-.06-2.19,2.21-4.69,4.6-4.51,2.17.16,3.31,2.45,3.49,2.82.97,2.03.71,4.94-.86,5.9ZM763.16,114.27c-2.21,1.34-7.14-1.06-7.23-4.21-.06-2.19,2.21-4.69,4.6-4.51,2.17.16,3.31,2.45,3.49,2.82.97,2.03.71,4.94-.86,5.9ZM763.16,93.44c-.06-2.19,2.21-4.69,4.6-4.51,2.17.16,3.31,2.45,3.49,2.82.97,2.03.71,4.94-.86,5.9-2.21,1.34-7.14-1.06-7.23-4.21ZM774.72,150.28c-2.21,1.34-7.14-1.06-7.23-4.21-.06-2.19,2.21-4.69,4.6-4.51,2.17.16,3.31,2.45,3.49,2.82.97,2.03.71,4.94-.86,5.9Z"/>
      <path class="cls-1" d="M733.72,161.3c-.09-2.09-.62-4.47-1.65-7.94-1.13-2.72-.76-7.29-2.83-9.77v1.77s-1.28,1.23,0,4.45c0,0-1.28,3.22,0,7.13v4.36h4.48Z"/>
      <path class="cls-1" d="M756.38,155.45c-.42-3.54.69-8.29-.56-11.71-.97-1.11-3.28-1.43-5.01-1.52-5.05-.1-1.76,6.51-1.84,8.66.58,2.74,2.36,5.31,2.91,8.02.07.8.13,1.6.17,2.4h9.06c-1.99-1.87-4.65-3.29-4.74-5.85Z"/>
      <path class="cls-1" d="M771.83,2.12v7.75l4.5,8.65s-.64,1.99,3.21,2.91l3.85-2.91v-8.65s-2.7-4.8-5.09-9.87h-7.06l.59,2.12Z"/>
      <path class="cls-1" d="M940.86,155.45c-.42-3.54.69-8.29-.56-11.71-.97-1.11-3.28-1.43-5.01-1.52-5.05-.1-1.76,6.51-1.84,8.66.58,2.74,2.36,5.31,2.91,8.02.07.8.13,1.6.17,2.4h9.06c-1.99-1.87-4.65-3.29-4.74-5.85Z"/>
      <path class="cls-1" d="M822.81,161.3c-.09-2.09-.62-4.47-1.65-7.94-1.34-3.23-.56-9.06-4.24-10.91-.79-.28-1.78-.34-2.77-.41v3.33s-1.28,1.23,0,4.45c0,0-1.28,3.22,0,7.13v4.36h8.66Z"/>
      <path class="cls-1" d="M914.55,19.7c-.2,5.84,4.33,11.72,4.53,17.49.06,18.43,0,36.98.03,55.42.23,5.56,2.5,12.53,3.45,17.96,2,8.03,3.06,18.77,5.52,26.04.74.7,2.28.9,2.97.27,1.24-1.89-1.51-4.22-2.18-6.12-1.48-2.6-.88-5.64-1-8.47-.65-12.42,6.02-26.18,4.87-39.17.16-5.05-2.17-9.77-3.04-14.75-.5-5.84-.08-11.76-.22-17.62-.71-10.12-3.36-20.63-2.6-30.69-.36-6.66-2.82-13.35-3.73-20.06h-8.87c.19,1.05.29,2.12.25,3.24,0,5.33,0,11.1,0,16.47Z"/>
      <path class="cls-1" d="M860.92,2.12v7.75l4.5,8.65s-.64,1.99,3.21,2.91l3.85-2.91v-8.65s-2.7-4.8-5.09-9.87h-7.06l.59,2.12Z"/>
      <path class="cls-1" d="M845.47,155.45c-.42-3.54.69-8.29-.56-11.71-.97-1.11-3.28-1.43-5.01-1.52-5.05-.1-1.76,6.51-1.84,8.66.58,2.74,2.36,5.31,2.91,8.02.07.8.13,1.6.17,2.4h9.06c-1.99-1.87-4.65-3.29-4.74-5.85Z"/>
      <path class="cls-1" d="M730.06,59.81c.22-7.44-.99-14.9-2.33-22.29l-.56,14.16-3.72,2.3-.14,2.76-3.85,4.14-3.21,2.3c3.21,6.44,3.21,9.65,3.21,9.65,3.21-4.6,3.85-7.67,3.85-7.67l3.21-1.99,3.46,6.16c.13-3.16.22-6.33.08-9.51Z"/>
      <path class="cls-1" d="M606.14,159.47s0-5.98,2.57-11.03v-9.2h-3.21l-4.83-2.3h-4.81s-.64-6.9,5.14-14.71c0,0-.64-4.14,0-10.11l4.5-2.76,1.93,2.76-.64,1.88.64,5.48s.64,5.06.64,6.9c0,0,1.28,5.06,3.85,9.2,0,0,5.14-1.38,9.63-3.22l5.78-1.84s1.28-3.22,1.28-8.28c0,0,0-5.52.64-10.57,0,0,0-5.06,3.85-8.28l2.57-2.76-2.57,8.74,2.57,9.19s-.64,5.52-2.57,10.11c0,0,.64,2.76,0,5.52l-3.21,2.3s-.64,4.14-.64,8.88v6.29l1.81-2.16,2.04-2.43s1.6-2.57,4.16-5.46c-.22-.08-.42-.17-.61-.28-2.87-2-.56-5.16,3.58-4.36,3.21.18,7.15.96,9.88,1.82,2.48.8,2.75-.15,2.44-1.44-.74-5.76-2.88-15.51-3.23-21.89-.09-2.4.22-4.9-.46-7.25-.67-2.22-2.42-4.5-2.82-6.9-.53-6.63-.03-13.04-1.31-19.65-.14-7.3.72-14.51.41-21.84.34-11.76-2.87-23.55-4.54-35.1-.05-6.96-.38-13.89-.51-20.92-.3-1.09-.8-2.16-1.38-3.22-.16.19-.34.35-.55.48-1.35.82-3.71.24-5.37-1.05h-16.98l1.3,3.96s1.28,5.98,0,11.81c0,0-3.85,3.82-8.35,5.66,0,0-3.85,0-7.71,4.6h-8.35v-4.6l-4.17-14.71s.4-3.28,1.15-6.72h-20.05c-.04,4.78.17,9.54,2.51,14.07.96,4.24,2.13,8.53,3.43,12.63.24,3.03-2.16,6.93,1.48,9.29,2.92,2.56,10.31-.45,11.2,3.59.5,4.51-.6,8.13-.17,12.86-.07,3.7.77,8.03.16,11.56-1.69-.36-3.47-3.17-5.59-2.52-1.74,1.4-1.16,8.37,0,10.04,5.16,5.37,5.66,4.05,1.54,10.27-2.34,5.63-3.74,11.59-6.35,17.1-3.6,6.7-6.1,13.15-5.25,20.25.3,2.89.38,5.95.95,8.75,3.71,7.33,11.28,3.4,12.41,17.89.97,4.67,3.49,10.28,5.32,15.5h15.09c-.09-.61-.17-1.23-.23-1.83ZM602.02,109.35c-2.21,1.34-7.14-1.06-7.23-4.21-.06-2.19,2.21-4.69,4.6-4.51,2.17.16,3.31,2.45,3.49,2.82.97,2.03.71,4.94-.86,5.9ZM631.21,5.72c2.17.16,3.31,2.45,3.49,2.82.97,2.03.71,4.94-.86,5.9-2.21,1.34-7.14-1.06-7.23-4.21-.06-2.19,2.21-4.69,4.6-4.51ZM594.43,73.28l12.2,5.98c0-5.98-1.28-8.74-1.28-8.74-3.21-6.9-7.71-10.11-7.71-10.11l12.85-.92c-10.28-5.52-12.85-7.36-12.85-7.36-.64-4.14,0-5.98,0-5.98.64-4.6,0-6.9,0-6.9,1.93-5.06,0-8.74,0-8.74,5.14-4.6,9.63,3.25,9.63,3.25,1.28,9.16,3.21,15.6,3.21,15.6l3.16,2.3,8.4-2.3-3.2-7.73,10.27,10.03-2.57-17.89,1.28-6.93c3.85-5.98,5.78-7.36,5.78-7.36l7.34,8.28-2.84,7.82-.64,16.09-3.72,2.3-.14,2.76-3.85,4.14-3.21,2.3c3.21,6.44,3.21,9.65,3.21,9.65,3.21-4.6,3.85-7.67,3.85-7.67l3.21-1.99,4.13,7.36v14.71l-2.84,5.98h-7.71c-8.35,3.68-8.35,0-8.35,0v-26.06l2.57-8.99c-3.85,1.94-2.57,4.24-2.57,4.24,0,4.75-4.5,19.31-4.5,19.31l-3.9,5.98,3.9,10.11c3.21,6.44,4.5,16.09,4.5,16.09v9.65l-8.4-4.6c-5.09-6.9-3.16-16.09-3.16-16.09l-3.85-5.52c-1.28-3.22-5.78-5.98-5.78-5.98-5.14-5.52-6.42-9.19-6.42-9.19v-6.9ZM588.54,129.33c-2.21,1.34-7.14-1.06-7.23-4.21-.06-2.19,2.21-4.69,4.6-4.51,2.17.16,3.31,2.45,3.49,2.82.97,2.03.71,4.94-.86,5.9ZM588.54,114.27c-2.21,1.34-7.14-1.06-7.23-4.21-.06-2.19,2.21-4.69,4.6-4.51,2.17.16,3.31,2.45,3.49,2.82.97,2.03.71,4.94-.86,5.9ZM588.54,93.44c-.06-2.19,2.21-4.69,4.6-4.51,2.17.16,3.31,2.45,3.49,2.82.97,2.03.71,4.94-.86,5.9-2.21,1.34-7.14-1.06-7.23-4.21ZM600.1,150.28c-2.21,1.34-7.14-1.06-7.23-4.21-.06-2.19,2.21-4.69,4.6-4.51,2.17.16,3.31,2.45,3.49,2.82.97,2.03.71,4.94-.86,5.9Z"/>
      <path class="cls-1" d="M730.06,3.24c0,5.33,0,11.1,0,16.47-.2,5.84,4.33,11.72,4.53,17.49.06,18.43,0,36.98.03,55.42.23,5.56,2.5,12.53,3.45,17.96,2,8.03,3.06,18.77,5.52,26.04.74.7,2.28.9,2.97.27,1.24-1.89-1.51-4.22-2.18-6.12-1.48-2.6-.88-5.64-1-8.47-.65-12.42,6.02-26.18,4.87-39.17.16-5.05-2.17-9.77-3.04-14.75-.5-5.84-.08-11.76-.22-17.62-.71-10.12-3.36-20.63-2.6-30.69-.36-6.66-2.82-13.35-3.73-20.06h-8.87c.19,1.05.29,2.12.25,3.24Z"/>
      <path class="cls-1" d="M581.76,155.45c-.42-3.54.69-8.29-.56-11.71-.97-1.11-3.28-1.43-5.01-1.52-5.05-.1-1.76,6.51-1.84,8.66.58,2.74,2.36,5.31,2.91,8.02.07.8.13,1.6.17,2.4h9.06c-1.99-1.87-4.65-3.29-4.74-5.85Z"/>
      <path class="cls-1" d="M555.45,19.7c-.2,5.84,4.33,11.72,4.53,17.49.06,18.43,0,36.98.03,55.42.23,5.56,2.5,12.53,3.45,17.96,2,8.03,3.06,18.77,5.52,26.04.74.7,2.28.9,2.97.27,1.24-1.89-1.51-4.22-2.18-6.12-1.48-2.6-.88-5.64-1-8.47-.65-12.42,6.02-26.18,4.87-39.17.16-5.05-2.17-9.77-3.04-14.75-.5-5.84-.08-11.76-.22-17.62-.71-10.12-3.36-20.63-2.6-30.69-.36-6.66-2.82-13.35-3.73-20.06h-8.87c.19,1.05.29,2.12.25,3.24,0,5.33,0,11.1,0,16.47Z"/>
      <path class="cls-1" d="M501.82,2.12v7.75l4.5,8.65s-.64,1.99,3.21,2.91l3.85-2.91v-8.65s-2.7-4.8-5.09-9.87h-7.06l.59,2.12Z"/>
      <path class="cls-1" d="M597.21,2.12v7.75l4.5,8.65s-.64,1.99,3.21,2.91l3.85-2.91v-8.65s-2.7-4.8-5.09-9.87h-7.06l.59,2.12Z"/>
      <path class="cls-1" d="M686.91,2.12v7.75l4.5,8.65s-.64,1.99,3.21,2.91l3.85-2.91v-8.65s-2.7-4.8-5.09-9.87h-7.06l.59,2.12Z"/>
      <path class="cls-1" d="M645.14,3.24c0,5.33,0,11.1,0,16.47-.2,5.84,4.33,11.72,4.53,17.49.06,18.43,0,36.98.03,55.42.23,5.56,2.5,12.53,3.45,17.96,2,8.03,3.06,18.77,5.52,26.04.74.7,2.28.9,2.97.27,1.24-1.89-1.51-4.22-2.18-6.12-1.48-2.6-.88-5.64-1-8.47-.65-12.42,6.02-26.18,4.87-39.17.16-5.05-2.17-9.77-3.04-14.75-.5-5.84-.08-11.76-.22-17.62-.71-10.12-3.36-20.63-2.6-30.69-.36-6.66-2.82-13.35-3.73-20.06h-8.87c.19,1.05.29,2.12.25,3.24Z"/>
      <path class="cls-1" d="M695.84,159.47s0-5.98,2.57-11.03v-9.2h-3.21l-4.83-2.3h-4.81s-.64-6.9,5.14-14.71c0,0-.64-4.14,0-10.11l4.5-2.76,1.93,2.76-.64,1.88.64,5.48s.64,5.06.64,6.9c0,0,1.28,5.06,3.85,9.2,0,0,5.14-1.38,9.63-3.22l5.78-1.84s1.28-3.22,1.28-8.28c0,0,0-5.52.64-10.57,0,0,0-5.06,3.85-8.28l2.57-2.76-2.57,8.74,2.57,9.19s-.64,5.52-2.57,10.11c0,0,.64,2.76,0,5.52l-3.21,2.3s-.64,4.14-.64,8.88v6.29l1.81-2.16,2.04-2.43s1.4-2.24,3.67-4.89c-1.67-.21-3.65-.09-4.9-.85-2.87-2-.56-5.16,3.58-4.36,3.21.18,7.15.96,9.88,1.82,2.48.8,2.75-.15,2.44-1.44-.74-5.76-2.88-15.51-3.23-21.89-.09-2.4.22-4.9-.46-7.25-.67-2.22-2.42-4.5-2.82-6.9-.41-5.16-.21-10.18-.7-15.26l-2.46,5.17h-7.71c-8.35,3.68-8.35,0-8.35,0v-26.06l2.57-8.99c-3.85,1.94-2.57,4.24-2.57,4.24,0,4.75-4.5,19.31-4.5,19.31l-3.9,5.98,3.9,10.11c3.21,6.44,4.5,16.09,4.5,16.09v9.65l-8.4-4.6c-5.09-6.9-3.16-16.09-3.16-16.09l-3.85-5.52c-1.28-3.22-5.78-5.98-5.78-5.98-5.14-5.52-6.42-9.19-6.42-9.19v-6.9l12.2,5.98c0-5.98-1.28-8.74-1.28-8.74-3.21-6.9-7.71-10.11-7.71-10.11l12.85-.92c-10.28-5.52-12.85-7.36-12.85-7.36-.64-4.14,0-5.98,0-5.98.64-4.6,0-6.9,0-6.9,1.93-5.06,0-8.74,0-8.74,5.14-4.6,9.63,3.25,9.63,3.25,1.28,9.16,3.21,15.6,3.21,15.6l3.16,2.3,8.4-2.3-3.2-7.73,10.27,10.03-2.57-17.89,1.28-6.93c3.85-5.98,5.78-7.36,5.78-7.36l2.16,2.44c-.1-6.03-.35-12.05-.47-18.14-.28-1.03-.75-2.03-1.28-3.03-.43-.21-.85-.47-1.23-.76h-16.98l1.3,3.96s1.28,5.98,0,11.81c0,0-3.85,3.82-8.35,5.66,0,0-3.85,0-7.71,4.6h-8.35v-4.6l-4.17-14.71s.4-3.28,1.15-6.72h-20.05c-.04,4.78.17,9.54,2.51,14.07.96,4.24,2.13,8.53,3.43,12.63.24,3.03-2.16,6.93,1.48,9.29,2.92,2.56,10.31-.45,11.2,3.59.5,4.51-.6,8.13-.17,12.86-.07,3.7.77,8.03.16,11.56-1.69-.36-3.47-3.17-5.59-2.52-1.74,1.4-1.16,8.37,0,10.04,5.16,5.37,5.66,4.05,1.54,10.27-2.34,5.63-3.74,11.59-6.35,17.1-3.6,6.7-6.1,13.15-5.25,20.25.3,2.89.38,5.95.95,8.75,3.71,7.33,11.28,3.4,12.41,17.89.97,4.67,3.49,10.28,5.32,15.5h15.09c-.09-.61-.17-1.23-.23-1.83ZM720.91,5.72c2.17.16,3.31,2.45,3.49,2.82.97,2.03.71,4.94-.86,5.9-2.21,1.34-7.14-1.06-7.23-4.21-.06-2.19,2.21-4.69,4.6-4.51ZM689.1,100.63c2.17.16,3.31,2.45,3.49,2.82.97,2.03.71,4.94-.86,5.9-2.21,1.34-7.14-1.06-7.23-4.21-.06-2.19,2.21-4.69,4.6-4.51ZM678.24,129.33c-2.21,1.34-7.14-1.06-7.23-4.21-.06-2.19,2.21-4.69,4.6-4.51,2.17.16,3.31,2.45,3.49,2.82.97,2.03.71,4.94-.86,5.9ZM678.24,114.27c-2.21,1.34-7.14-1.06-7.23-4.21-.06-2.19,2.21-4.69,4.6-4.51,2.17.16,3.31,2.45,3.49,2.82.97,2.03.71,4.94-.86,5.9ZM678.24,93.44c-.06-2.19,2.21-4.69,4.6-4.51,2.17.16,3.31,2.45,3.49,2.82.97,2.03.71,4.94-.86,5.9-2.21,1.34-7.14-1.06-7.23-4.21ZM689.8,150.28c-2.21,1.34-7.14-1.06-7.23-4.21-.06-2.19,2.21-4.69,4.6-4.51,2.17.16,3.31,2.45,3.49,2.82.97,2.03.71,4.94-.86,5.9Z"/>
      <path class="cls-1" d="M648.8,161.3c-.09-2.09-.62-4.47-1.65-7.94-1.34-3.23-.56-9.06-4.24-10.91-.95-.34-2.18-.36-3.37-.45v3.37s-1.28,1.23,0,4.45c0,0-1.28,3.22,0,7.13v4.36h9.26Z"/>
      <path class="cls-1" d="M671.46,155.45c-.42-3.54.69-8.29-.56-11.71-.97-1.11-3.28-1.43-5.01-1.52-5.05-.1-1.76,6.51-1.84,8.66.58,2.74,2.36,5.31,2.91,8.02.07.8.13,1.6.17,2.4h9.06c-1.99-1.87-4.65-3.29-4.74-5.85Z"/>
      <path class="cls-1" d="M528.95,147.98l-.86-7.82s-4.5-5.06-5.78-1.84l-1.93,9.65-1.28,8.97-.31,4.36h10.16v-13.32Z"/>
      <path class="cls-1" d="M1248.31,147.98l-.86-7.82s-4.5-5.06-5.78-1.84l-1.93,9.65-1.28,8.97-.31,4.36h10.16v-13.32Z"/>
      <path class="cls-1" d="M1376.41,142.46c-2.25-2.36-8.16-.58-7.67,2.25.08,5.24,3.44,11.2,4.01,16.51,0,.03-.01.05-.02.08h6.59c-.56-1.54-1-3.23-1-5.22-.9-4.59-.25-9.27-1.9-13.61Z"/>
      <path class="cls-1" d="M1286.71,142.46c-2.25-2.36-8.16-.58-7.67,2.25.08,5.24,3.44,11.2,4.01,16.51,0,.03-.01.05-.02.08h6.59c-.56-1.54-1-3.23-1-5.22-.9-4.59-.25-9.27-1.9-13.61Z"/>
      <path class="cls-1" d="M1343.7,147.98l-.86-7.82s-4.5-5.06-5.78-1.84l-1.93,9.65-1.28,8.97-.31,4.36h10.16v-13.32Z"/>
      <path class="cls-1" d="M1520.53,147.98l-.86-7.82s-4.5-5.06-5.78-1.84l-1.93,9.65-1.28,8.97-.31,4.36h10.16v-13.32Z"/>
      <path class="cls-1" d="M1463.54,142.46c-2.25-2.36-8.16-.58-7.67,2.25.08,5.24,3.44,11.2,4.01,16.51,0,.03-.01.05-.02.08h6.59c-.56-1.54-1-3.23-1-5.22-.9-4.59-.25-9.27-1.9-13.61Z"/>
      <path class="cls-1" d="M1433.4,147.98l-.86-7.82s-4.5-5.06-5.78-1.84l-1.93,9.65-1.28,8.97-.31,4.36h10.16v-13.32Z"/>
      <path class="cls-1" d="M1278.46,161.3c-.09-2.09-.62-4.47-1.65-7.94-1.34-3.23-.56-9.06-4.24-10.91-1.81-.64-4.64-.15-6.24-1.13-2.87-2-.56-5.16,3.58-4.36,3.21.18,7.15.96,9.88,1.82,2.48.8,2.75-.15,2.44-1.44-.74-5.76-2.88-15.51-3.23-21.89-.09-2.4.22-4.9-.46-7.25-.67-2.22-2.42-4.5-2.82-6.9-.53-6.63-.03-13.04-1.31-19.65-.14-7.3.72-14.51.41-21.84.34-11.76-2.87-23.55-4.54-35.1-.05-6.96-.38-13.89-.51-20.92-.35-1.29-.99-2.55-1.7-3.79h-4.98c-.23.44-.54.81-.94,1.05-1.35.82-3.71.24-5.37-1.05h-16.98l1.3,3.96s1.28,5.98,0,11.81c0,0-3.85,3.82-8.35,5.66,0,0-3.85,0-7.71,4.6h-8.35v-4.6l-4.17-14.71s.4-3.28,1.15-6.72h-20.05c-.04,4.78.17,9.54,2.51,14.07.96,4.24,2.13,8.53,3.43,12.63.24,3.03-2.16,6.93,1.48,9.29,2.92,2.56,10.31-.45,11.2,3.59.5,4.51-.6,8.13-.17,12.86-.07,3.7.77,8.03.16,11.56-1.69-.36-3.47-3.17-5.59-2.52-1.74,1.4-1.16,8.37,0,10.04,5.16,5.37,5.66,4.05,1.54,10.27-2.34,5.63-3.74,11.59-6.35,17.1-3.6,6.7-6.1,13.15-5.25,20.25.3,2.89.38,5.95.95,8.75,3.71,7.33,11.28,3.4,12.41,17.89.97,4.67,3.49,10.28,5.32,15.5h15.09c-.09-.61-.17-1.23-.23-1.83,0,0,0-5.98,2.57-11.03v-9.2h-3.21l-4.83-2.3h-4.81s-.64-6.9,5.14-14.71c0,0-.64-4.14,0-10.11l4.5-2.76,1.93,2.76-.64,1.88.64,5.48s.64,5.06.64,6.9c0,0,1.28,5.06,3.85,9.2,0,0,5.14-1.38,9.63-3.22l5.78-1.84s1.28-3.22,1.28-8.28c0,0,0-5.52.64-10.57,0,0,0-5.06,3.85-8.28l2.57-2.76-2.57,8.74,2.57,9.19s-.64,5.52-2.57,10.11c0,0,.64,2.76,0,5.52l-3.21,2.3s-.64,4.14-.64,8.88v6.29l1.81-2.16,2.04-2.43s2.57-4.14,6.42-7.82v6.13s-1.28,1.23,0,4.45c0,0-1.28,3.22,0,7.13v4.36h14.95ZM1255.18,5.72c2.17.16,3.31,2.45,3.49,2.82.97,2.03.71,4.94-.86,5.9-2.21,1.34-7.14-1.06-7.23-4.21-.06-2.19,2.21-4.69,4.6-4.51ZM1212.51,129.33c-2.21,1.34-7.14-1.06-7.23-4.21-.06-2.19,2.21-4.69,4.6-4.51,2.17.16,3.31,2.45,3.49,2.82.97,2.03.71,4.94-.86,5.9ZM1212.51,114.27c-2.21,1.34-7.14-1.06-7.23-4.21-.06-2.19,2.21-4.69,4.6-4.51,2.17.16,3.31,2.45,3.49,2.82.97,2.03.71,4.94-.86,5.9ZM1212.52,93.44c-.06-2.19,2.21-4.69,4.6-4.51,2.17.16,3.31,2.45,3.49,2.82.97,2.03.71,4.94-.86,5.9-2.21,1.34-7.14-1.06-7.23-4.21ZM1221.45,141.56c2.17.16,3.31,2.45,3.49,2.82.97,2.03.71,4.94-.86,5.9-2.21,1.34-7.14-1.06-7.23-4.21-.06-2.19,2.21-4.69,4.6-4.51ZM1226,109.35c-2.21,1.34-7.14-1.06-7.23-4.21-.06-2.19,2.21-4.69,4.6-4.51,2.17.16,3.31,2.45,3.49,2.82.97,2.03.71,4.94-.86,5.9ZM1262.08,91.21h-7.71c-8.35,3.68-8.35,0-8.35,0v-26.06l2.57-8.99c-3.85,1.94-2.57,4.24-2.57,4.24,0,4.75-4.5,19.31-4.5,19.31l-3.9,5.98,3.9,10.11c3.21,6.44,4.5,16.09,4.5,16.09v9.65l-8.4-4.6c-5.09-6.9-3.16-16.09-3.16-16.09l-3.85-5.52c-1.28-3.22-5.78-5.98-5.78-5.98-5.14-5.52-6.42-9.19-6.42-9.19v-6.9l12.2,5.98c0-5.98-1.28-8.74-1.28-8.74-3.21-6.9-7.71-10.11-7.71-10.11l12.85-.92c-10.28-5.52-12.85-7.36-12.85-7.36-.64-4.14,0-5.98,0-5.98.64-4.6,0-6.9,0-6.9,1.93-5.06,0-8.74,0-8.74,5.14-4.6,9.63,3.25,9.63,3.25,1.28,9.16,3.21,15.6,3.21,15.6l3.16,2.3,8.4-2.3-3.2-7.73,10.27,10.03-2.57-17.89,1.28-6.93c3.85-5.98,5.78-7.36,5.78-7.36l7.34,8.28-2.84,7.82-.64,16.09-3.72,2.3-.14,2.76-3.85,4.14-3.21,2.3c3.21,6.44,3.21,9.65,3.21,9.65,3.21-4.6,3.85-7.67,3.85-7.67l3.21-1.99,4.13,7.36v14.71l-2.84,5.98Z"/>
      <path class="cls-1" d="M1073.14,147.98l-.86-7.82s-4.5-5.06-5.78-1.84l-1.93,9.65-1.28,8.97-.31,4.36h10.16v-13.32Z"/>
      <path class="cls-1" d="M1016.15,142.46c-2.25-2.36-8.16-.58-7.67,2.25.08,5.24,3.44,11.2,4.01,16.51,0,.03-.01.05-.02.08h6.59c-.56-1.54-1-3.23-1.01-5.22-.9-4.59-.25-9.27-1.9-13.61Z"/>
      <path class="cls-1" d="M1191.32,142.46c-2.25-2.36-8.16-.58-7.67,2.25.07,5.24,3.44,11.2,4.01,16.51,0,.03-.01.05-.02.08h6.59c-.56-1.54-1-3.23-1.01-5.22-.9-4.59-.25-9.27-1.9-13.61Z"/>
      <path class="cls-1" d="M1159.22,147.98l-.86-7.82s-4.5-5.06-5.78-1.84l-1.93,9.65-1.28,8.97-.31,4.36h10.16v-13.32Z"/>
      <path class="cls-1" d="M1102.23,142.46c-2.25-2.36-8.16-.58-7.67,2.25.07,5.24,3.44,11.2,4.01,16.51,0,.03-.01.05-.02.08h6.59c-.56-1.54-1-3.23-1-5.22-.9-4.59-.25-9.27-1.9-13.61Z"/>
      <path class="cls-1" d="M1823.8,142.46c-2.25-2.36-8.16-.58-7.67,2.25.07,5.24,3.44,11.2,4.01,16.51,0,.03-.01.05-.02.08h6.59c-.56-1.54-1-3.23-1.01-5.22-.9-4.59-.25-9.27-1.9-13.61Z"/>
      <path class="cls-1" d="M1791.09,147.98l-.86-7.82s-4.5-5.06-5.78-1.84l-1.93,9.65-1.28,8.97-.31,4.36h10.16v-13.32Z"/>
      <path class="cls-1" d="M1838.21,155.45c-.42-3.54.69-8.29-.56-11.71-.97-1.11-3.28-1.43-5.01-1.52-5.05-.1-1.76,6.51-1.84,8.66.58,2.74,2.36,5.31,2.91,8.02.07.8.13,1.6.17,2.4h9.06c-1.99-1.87-4.65-3.29-4.74-5.85Z"/>
      <path class="cls-1" d="M1853.66,2.12v7.75l4.5,8.65s-.64,1.99,3.21,2.91l3.85-2.91v-8.65s-2.7-4.8-5.09-9.87h-7.06l.59,2.12Z"/>
      <path class="cls-1" d="M1549.61,142.46c-2.25-2.36-8.16-.58-7.67,2.25.08,5.24,3.44,11.2,4.01,16.51,0,.03-.01.05-.02.08h6.59c-.56-1.54-1-3.23-1.01-5.22-.9-4.59-.25-9.27-1.9-13.61Z"/>
      <path class="cls-1" d="M1811.89,3.24c0,5.33,0,11.1,0,16.47-.2,5.84,4.33,11.72,4.53,17.49.06,18.43,0,36.98.03,55.42.23,5.56,2.5,12.53,3.45,17.96,2,8.03,3.06,18.77,5.52,26.04.74.7,2.28.9,2.97.27,1.24-1.89-1.51-4.22-2.18-6.12-1.48-2.6-.88-5.64-1-8.47-.65-12.42,6.02-26.18,4.87-39.17.16-5.05-2.17-9.77-3.04-14.75-.5-5.84-.08-11.76-.22-17.62-.71-10.12-3.36-20.63-2.6-30.69-.36-6.66-2.82-13.35-3.73-20.06h-8.87c.19,1.05.29,2.12.25,3.24Z"/>
      <path class="cls-1" d="M1734.1,142.46c-2.25-2.36-8.16-.58-7.67,2.25.07,5.24,3.44,11.2,4.01,16.51,0,.03-.01.05-.02.08h6.59c-.56-1.54-1-3.23-1.01-5.22-.9-4.59-.25-9.27-1.9-13.61Z"/>
      <path class="cls-1" d="M79.59,147.98l-.86-7.82s-4.5-5.06-5.78-1.84l-1.93,9.65-1.28,8.97-.31,4.36h10.16v-13.32Z"/>
      <path class="cls-1" d="M1606.6,147.98l-.86-7.82s-4.5-5.06-5.78-1.84l-1.93,9.65-1.28,8.97-.31,4.36h10.16v-13.32Z"/>
      <path class="cls-1" d="M1695.7,147.98l-.86-7.82s-4.5-5.06-5.78-1.84l-1.93,9.65-1.28,8.97-.31,4.36h10.16v-13.32Z"/>
      <path class="cls-1" d="M1725.85,161.3c-.09-2.09-.62-4.47-1.65-7.94-1.34-3.23-.56-9.06-4.24-10.91-1.81-.64-4.64-.15-6.24-1.13-2.87-2-.56-5.16,3.58-4.36,3.21.18,7.15.96,9.88,1.82,2.48.8,2.75-.15,2.44-1.44-.74-5.76-2.88-15.51-3.23-21.89-.09-2.4.22-4.9-.46-7.25-.67-2.22-2.42-4.5-2.82-6.9-.53-6.63-.03-13.04-1.31-19.65-.14-7.3.72-14.51.41-21.84.34-11.76-2.87-23.55-4.54-35.1-.05-6.96-.38-13.89-.51-20.92-.35-1.29-.99-2.55-1.7-3.79h-4.98c-.23.44-.54.81-.94,1.05-1.35.82-3.71.24-5.37-1.05h-16.98l1.3,3.96s1.28,5.98,0,11.81c0,0-3.85,3.82-8.35,5.66,0,0-3.85,0-7.71,4.6h-8.35v-4.6l-4.17-14.71s.4-3.28,1.15-6.72h-20.05c-.04,4.78.17,9.54,2.51,14.07.96,4.24,2.13,8.53,3.43,12.63.24,3.03-2.16,6.93,1.48,9.29,2.92,2.56,10.31-.45,11.2,3.59.5,4.51-.6,8.13-.17,12.86-.07,3.7.77,8.03.16,11.56-1.69-.36-3.47-3.17-5.59-2.52-1.74,1.4-1.16,8.37,0,10.04,5.16,5.37,5.66,4.05,1.54,10.27-2.34,5.63-3.74,11.59-6.35,17.1-3.6,6.7-6.1,13.15-5.25,20.25.3,2.89.38,5.95.95,8.75,3.71,7.33,11.28,3.4,12.41,17.89.97,4.67,3.49,10.28,5.32,15.5h15.09c-.09-.61-.17-1.23-.23-1.83,0,0,0-5.98,2.57-11.03v-9.2h-3.21l-4.83-2.3h-4.81s-.64-6.9,5.14-14.71c0,0-.64-4.14,0-10.11l4.5-2.76,1.93,2.76-.64,1.88.64,5.48s.64,5.06.64,6.9c0,0,1.28,5.06,3.85,9.2,0,0,5.14-1.38,9.63-3.22l5.78-1.84s1.28-3.22,1.28-8.28c0,0,0-5.52.64-10.57,0,0,0-5.06,3.85-8.28l2.57-2.76-2.57,8.74,2.57,9.19s-.64,5.52-2.57,10.11c0,0,.64,2.76,0,5.52l-3.21,2.3s-.64,4.14-.64,8.88v6.29l1.81-2.16,2.04-2.43s2.57-4.14,6.42-7.82v6.13s-1.28,1.23,0,4.45c0,0-1.28,3.22,0,7.13v4.36h14.95ZM1702.57,5.72c2.17.16,3.31,2.45,3.49,2.82.97,2.03.71,4.94-.86,5.9-2.21,1.34-7.14-1.06-7.23-4.21-.06-2.19,2.21-4.69,4.6-4.51ZM1659.9,129.33c-2.21,1.34-7.14-1.06-7.23-4.21-.06-2.19,2.21-4.69,4.6-4.51,2.17.16,3.31,2.45,3.49,2.82.97,2.03.71,4.94-.86,5.9ZM1659.9,114.27c-2.21,1.34-7.14-1.06-7.23-4.21-.06-2.19,2.21-4.69,4.6-4.51,2.17.16,3.31,2.45,3.49,2.82.97,2.03.71,4.94-.86,5.9ZM1659.9,93.44c-.06-2.19,2.21-4.69,4.6-4.51,2.17.16,3.31,2.45,3.49,2.82.97,2.03.71,4.94-.86,5.9-2.21,1.34-7.14-1.06-7.23-4.21ZM1668.83,141.56c2.17.16,3.31,2.45,3.49,2.82.97,2.03.71,4.94-.86,5.9-2.21,1.34-7.14-1.06-7.23-4.21-.06-2.19,2.21-4.69,4.6-4.51ZM1673.38,109.35c-2.21,1.34-7.14-1.06-7.23-4.21-.06-2.19,2.21-4.69,4.6-4.51,2.17.16,3.31,2.45,3.49,2.82.97,2.03.71,4.94-.86,5.9ZM1709.47,91.21h-7.71c-8.35,3.68-8.35,0-8.35,0v-26.06l2.57-8.99c-3.85,1.94-2.57,4.24-2.57,4.24,0,4.75-4.5,19.31-4.5,19.31l-3.9,5.98,3.9,10.11c3.21,6.44,4.5,16.09,4.5,16.09v9.65l-8.4-4.6c-5.09-6.9-3.16-16.09-3.16-16.09l-3.85-5.52c-1.28-3.22-5.78-5.98-5.78-5.98-5.14-5.52-6.42-9.19-6.42-9.19v-6.9l12.2,5.98c0-5.98-1.28-8.74-1.28-8.74-3.21-6.9-7.71-10.11-7.71-10.11l12.85-.92c-10.28-5.52-12.85-7.36-12.85-7.36-.64-4.14,0-5.98,0-5.98.64-4.6,0-6.9,0-6.9,1.93-5.06,0-8.74,0-8.74,5.14-4.6,9.63,3.25,9.63,3.25,1.28,9.16,3.21,15.6,3.21,15.6l3.16,2.3,8.4-2.3-3.2-7.73,10.27,10.03-2.57-17.89,1.28-6.93c3.85-5.98,5.78-7.36,5.78-7.36l7.34,8.28-2.84,7.82-.64,16.09-3.72,2.3-.14,2.76-3.85,4.14-3.21,2.3c3.21,6.44,3.21,9.65,3.21,9.65,3.21-4.6,3.85-7.67,3.85-7.67l3.21-1.99,4.13,7.36v14.71l-2.84,5.98Z"/>
      <path class="cls-1" d="M1638.71,142.46c-2.25-2.36-8.16-.58-7.67,2.25.08,5.24,3.44,11.2,4.01,16.51,0,.03-.01.05-.02.08h6.59c-.56-1.54-1-3.23-1.01-5.22-.9-4.59-.25-9.27-1.9-13.61Z"/>
      <path class="cls-1" d="M296.79,142.46c-2.25-2.36-8.16-.58-7.67,2.25.08,5.24,3.44,11.2,4.01,16.51,0,.03-.01.05-.02.08h6.59c-.56-1.54-1-3.23-1.01-5.22-.9-4.59-.25-9.27-1.9-13.61Z"/>
      <path class="cls-1" d="M353.78,147.98l-.86-7.82s-4.5-5.06-5.78-1.84l-1.93,9.65-1.28,8.97-.31,4.36h10.16v-13.32Z"/>
      <path class="cls-1" d="M559.1,161.3c-.09-2.09-.62-4.47-1.65-7.94-1.34-3.23-.56-9.06-4.24-10.91-1.81-.64-4.64-.15-6.24-1.13-2.87-2-.56-5.16,3.58-4.36,3.21.18,7.15.96,9.88,1.82,2.48.8,2.75-.15,2.44-1.44-.74-5.76-2.88-15.51-3.23-21.89-.09-2.4.22-4.9-.46-7.25-.67-2.22-2.42-4.5-2.82-6.9-.53-6.63-.03-13.04-1.31-19.65-.14-7.3.72-14.51.41-21.84.34-11.76-2.87-23.55-4.54-35.1-.05-6.96-.38-13.89-.51-20.92-.35-1.29-.99-2.55-1.7-3.79h-4.98c-.23.44-.54.81-.94,1.05-1.35.82-3.71.24-5.37-1.05h-16.98l1.3,3.96s1.28,5.98,0,11.81c0,0-3.85,3.82-8.35,5.66,0,0-3.85,0-7.71,4.6h-8.35v-4.6l-4.17-14.71s.4-3.28,1.15-6.72h-20.05c-.04,4.78.16,9.54,2.51,14.07.96,4.24,2.13,8.53,3.43,12.63.24,3.03-2.16,6.93,1.48,9.29,2.92,2.56,10.31-.45,11.2,3.59.5,4.51-.6,8.13-.17,12.86-.07,3.7.77,8.03.16,11.56-1.69-.36-3.47-3.17-5.59-2.52-1.74,1.4-1.16,8.37,0,10.04,5.16,5.37,5.66,4.05,1.54,10.27-2.34,5.63-3.74,11.59-6.35,17.1-3.6,6.7-6.1,13.15-5.25,20.25.3,2.89.38,5.95.95,8.75,3.71,7.33,11.28,3.4,12.41,17.89.97,4.67,3.49,10.28,5.32,15.5h15.09c-.09-.61-.17-1.23-.23-1.83,0,0,0-5.98,2.57-11.03v-9.2h-3.21l-4.83-2.3h-4.81s-.64-6.9,5.14-14.71c0,0-.64-4.14,0-10.11l4.5-2.76,1.93,2.76-.64,1.88.64,5.48s.64,5.06.64,6.9c0,0,1.28,5.06,3.85,9.2,0,0,5.14-1.38,9.63-3.22l5.78-1.84s1.28-3.22,1.28-8.28c0,0,0-5.52.64-10.57,0,0,0-5.06,3.85-8.28l2.57-2.76-2.57,8.74,2.57,9.19s-.64,5.52-2.57,10.11c0,0,.64,2.76,0,5.52l-3.21,2.3s-.64,4.14-.64,8.88v6.29l1.81-2.16,2.04-2.43s2.57-4.14,6.42-7.82v6.13s-1.28,1.23,0,4.45c0,0-1.28,3.22,0,7.13v4.36h14.95ZM535.82,5.72c2.17.16,3.31,2.45,3.49,2.82.97,2.03.71,4.94-.86,5.9-2.21,1.34-7.14-1.06-7.23-4.21-.06-2.19,2.21-4.69,4.6-4.51ZM493.15,129.33c-2.21,1.34-7.14-1.06-7.23-4.21-.06-2.19,2.21-4.69,4.6-4.51,2.17.16,3.31,2.45,3.49,2.82.97,2.03.71,4.94-.86,5.9ZM493.15,114.27c-2.21,1.34-7.14-1.06-7.23-4.21-.06-2.19,2.21-4.69,4.6-4.51,2.17.16,3.31,2.45,3.49,2.82.97,2.03.71,4.94-.86,5.9ZM493.15,93.44c-.06-2.19,2.21-4.69,4.6-4.51,2.17.16,3.31,2.45,3.49,2.82.97,2.03.71,4.94-.86,5.9-2.21,1.34-7.14-1.06-7.23-4.21ZM502.09,141.56c2.17.16,3.31,2.45,3.49,2.82.97,2.03.71,4.94-.86,5.9-2.21,1.34-7.14-1.06-7.23-4.21-.06-2.19,2.21-4.69,4.6-4.51ZM506.64,109.35c-2.21,1.34-7.14-1.06-7.23-4.21-.06-2.19,2.21-4.69,4.6-4.51,2.17.16,3.31,2.45,3.49,2.82.97,2.03.71,4.94-.86,5.9ZM542.72,91.21h-7.71c-8.35,3.68-8.35,0-8.35,0v-26.06l2.57-8.99c-3.85,1.94-2.57,4.24-2.57,4.24,0,4.75-4.5,19.31-4.5,19.31l-3.9,5.98,3.9,10.11c3.21,6.44,4.5,16.09,4.5,16.09v9.65l-8.4-4.6c-5.09-6.9-3.16-16.09-3.16-16.09l-3.85-5.52c-1.28-3.22-5.78-5.98-5.78-5.98-5.14-5.52-6.42-9.19-6.42-9.19v-6.9l12.2,5.98c0-5.98-1.28-8.74-1.28-8.74-3.21-6.9-7.71-10.11-7.71-10.11l12.85-.92c-10.28-5.52-12.85-7.36-12.85-7.36-.64-4.14,0-5.98,0-5.98.64-4.6,0-6.9,0-6.9,1.93-5.06,0-8.74,0-8.74,5.14-4.6,9.63,3.25,9.63,3.25,1.28,9.16,3.21,15.6,3.21,15.6l3.16,2.3,8.4-2.3-3.2-7.73,10.27,10.03-2.57-17.89,1.28-6.93c3.85-5.98,5.78-7.36,5.78-7.36l7.34,8.28-2.84,7.82-.64,16.09-3.72,2.3-.14,2.76-3.85,4.14-3.21,2.3c3.21,6.44,3.21,9.65,3.21,9.65,3.21-4.6,3.85-7.67,3.85-7.67l3.21-1.99,4.13,7.36v14.71l-2.84,5.98Z"/>
      <path class="cls-1" d="M471.96,142.46c-2.25-2.36-8.16-.58-7.67,2.25.07,5.24,3.44,11.2,4.01,16.51,0,.03-.01.05-.02.08h6.59c-.56-1.54-1-3.23-1.01-5.22-.9-4.59-.25-9.27-1.9-13.61Z"/>
      <path class="cls-1" d="M439.85,147.98l-.86-7.82s-4.5-5.06-5.78-1.84l-1.93,9.65-1.28,8.97-.31,4.36h10.16v-13.32Z"/>
      <path class="cls-1" d="M382.86,142.46c-2.25-2.36-8.16-.58-7.67,2.25.07,5.24,3.44,11.2,4.01,16.51,0,.03-.01.05-.02.08h6.59c-.56-1.54-1-3.23-1.01-5.22-.9-4.59-.25-9.27-1.9-13.61Z"/>
      <path class="cls-1" d="M111.7,142.46c-2.25-2.36-8.16-.58-7.67,2.25.08,5.24,3.44,11.2,4.01,16.51,0,.03-.01.05-.02.08h6.59c-.56-1.54-1-3.23-1.01-5.22-.9-4.59-.25-9.27-1.9-13.61Z"/>
      <path class="cls-1" d="M198.84,161.3c-.09-2.09-.62-4.47-1.65-7.94-1.34-3.23-.56-9.06-4.24-10.91-1.81-.64-4.64-.15-6.24-1.13-2.87-2-.56-5.16,3.58-4.36,3.21.18,7.15.96,9.88,1.82,2.48.8,2.75-.15,2.44-1.44-.74-5.76-2.88-15.51-3.23-21.89-.09-2.4.22-4.9-.46-7.25-.67-2.22-2.42-4.5-2.82-6.9-.53-6.63-.03-13.04-1.31-19.65-.14-7.3.72-14.51.41-21.84.34-11.76-2.87-23.55-4.54-35.1-.05-6.96-.38-13.89-.51-20.92-.35-1.29-.99-2.55-1.7-3.79h-4.98c-.23.44-.54.81-.94,1.05-1.35.82-3.71.24-5.37-1.05h-16.98l1.3,3.96s1.28,5.98,0,11.81c0,0-3.85,3.82-8.35,5.66,0,0-3.85,0-7.71,4.6h-8.35v-4.6l-4.17-14.71s.4-3.28,1.15-6.72h-20.05c-.04,4.78.16,9.54,2.51,14.07.96,4.24,2.13,8.53,3.43,12.63.24,3.03-2.16,6.93,1.48,9.29,2.92,2.56,10.31-.45,11.2,3.59.5,4.51-.6,8.13-.17,12.86-.07,3.7.77,8.03.16,11.56-1.69-.36-3.47-3.17-5.59-2.52-1.74,1.4-1.16,8.37,0,10.04,5.16,5.37,5.66,4.05,1.54,10.27-2.34,5.63-3.74,11.59-6.35,17.1-3.6,6.7-6.1,13.15-5.25,20.25.3,2.89.38,5.95.95,8.75,3.71,7.33,11.28,3.4,12.41,17.89.97,4.67,3.49,10.28,5.32,15.5h15.09c-.09-.61-.17-1.23-.23-1.83,0,0,0-5.98,2.57-11.03v-9.2h-3.21l-4.83-2.3h-4.81s-.64-6.9,5.14-14.71c0,0-.64-4.14,0-10.11l4.5-2.76,1.93,2.76-.64,1.88.64,5.48s.64,5.06.64,6.9c0,0,1.28,5.06,3.85,9.2,0,0,5.14-1.38,9.63-3.22l5.78-1.84s1.28-3.22,1.28-8.28c0,0,0-5.52.64-10.57,0,0,0-5.06,3.85-8.28l2.57-2.76-2.57,8.74,2.57,9.19s-.64,5.52-2.57,10.11c0,0,.64,2.76,0,5.52l-3.21,2.3s-.64,4.14-.64,8.88v6.29l1.81-2.16,2.04-2.43s2.57-4.14,6.42-7.82v6.13s-1.28,1.23,0,4.45c0,0-1.28,3.22,0,7.13v4.36h14.95ZM175.56,5.72c2.17.16,3.31,2.45,3.49,2.82.97,2.03.71,4.94-.86,5.9-2.21,1.34-7.14-1.06-7.23-4.21-.06-2.19,2.21-4.69,4.6-4.51ZM132.89,129.33c-2.21,1.34-7.14-1.06-7.23-4.21-.06-2.19,2.21-4.69,4.6-4.51,2.17.16,3.31,2.45,3.49,2.82.97,2.03.71,4.94-.86,5.9ZM132.89,114.27c-2.21,1.34-7.14-1.06-7.23-4.21-.06-2.19,2.21-4.69,4.6-4.51,2.17.16,3.31,2.45,3.49,2.82.97,2.03.71,4.94-.86,5.9ZM132.89,93.44c-.06-2.19,2.21-4.69,4.6-4.51,2.17.16,3.31,2.45,3.49,2.82.97,2.03.71,4.94-.86,5.9-2.21,1.34-7.14-1.06-7.23-4.21ZM141.82,141.56c2.17.16,3.31,2.45,3.49,2.82.97,2.03.71,4.94-.86,5.9-2.21,1.34-7.14-1.06-7.23-4.21-.06-2.19,2.21-4.69,4.6-4.51ZM146.37,109.35c-2.21,1.34-7.14-1.06-7.23-4.21-.06-2.19,2.21-4.69,4.6-4.51,2.17.16,3.31,2.45,3.49,2.82.97,2.03.71,4.94-.86,5.9ZM182.46,91.21h-7.71c-8.35,3.68-8.35,0-8.35,0v-26.06l2.57-8.99c-3.85,1.94-2.57,4.24-2.57,4.24,0,4.75-4.5,19.31-4.5,19.31l-3.9,5.98,3.9,10.11c3.21,6.44,4.5,16.09,4.5,16.09v9.65l-8.4-4.6c-5.09-6.9-3.16-16.09-3.16-16.09l-3.85-5.52c-1.28-3.22-5.78-5.98-5.78-5.98-5.14-5.52-6.42-9.19-6.42-9.19v-6.9l12.2,5.98c0-5.98-1.28-8.74-1.28-8.74-3.21-6.9-7.71-10.11-7.71-10.11l12.85-.92c-10.28-5.52-12.85-7.36-12.85-7.36-.64-4.14,0-5.98,0-5.98.64-4.6,0-6.9,0-6.9,1.93-5.06,0-8.74,0-8.74,5.14-4.6,9.63,3.25,9.63,3.25,1.28,9.16,3.21,15.6,3.21,15.6l3.16,2.3,8.4-2.3-3.2-7.73,10.27,10.03-2.57-17.89,1.28-6.93c3.85-5.98,5.78-7.36,5.78-7.36l7.34,8.28-2.84,7.82-.64,16.09-3.72,2.3-.14,2.76-3.85,4.14-3.21,2.3c3.21,6.44,3.21,9.65,3.21,9.65,3.21-4.6,3.85-7.67,3.85-7.67l3.21-1.99,4.13,7.36v14.71l-2.84,5.98Z"/>
      <path class="cls-1" d="M264.08,147.98l-.86-7.82s-4.5-5.06-5.78-1.84l-1.93,9.65-1.28,8.97-.31,4.36h10.16v-13.32Z"/>
      <path class="cls-1" d="M207.09,142.46c-2.25-2.36-8.16-.58-7.67,2.25.08,5.24,3.44,11.2,4.01,16.51,0,.03-.01.05-.02.08h6.59c-.56-1.54-1-3.23-1.01-5.22-.9-4.59-.25-9.27-1.9-13.61Z"/>
      <path class="cls-1" d="M168.69,147.98l-.86-7.82s-4.5-5.06-5.78-1.84l-1.93,9.65-1.28,8.97-.31,4.36h10.16v-13.32Z"/>
      <path class="cls-1" d="M567.35,142.46c-2.25-2.36-8.16-.58-7.67,2.25.08,5.24,3.44,11.2,4.01,16.51,0,.03-.01.05-.02.08h6.59c-.56-1.54-1-3.23-1.01-5.22-.9-4.59-.25-9.27-1.9-13.61Z"/>
      <path class="cls-1" d="M831.06,142.46c-2.25-2.36-8.16-.58-7.67,2.25.07,5.24,3.44,11.2,4.01,16.51,0,.03-.01.05-.02.08h6.59c-.56-1.54-1-3.23-1.01-5.22-.9-4.59-.25-9.27-1.9-13.61Z"/>
      <path class="cls-1" d="M798.96,147.98l-.86-7.82s-4.5-5.06-5.78-1.84l-1.93,9.65-1.28,8.97-.31,4.36h10.16v-13.32Z"/>
      <path class="cls-1" d="M965.24,159.47s0-5.98,2.57-11.03v-9.2h-3.21l-4.83-2.3h-4.81s-.64-6.9,5.14-14.71c0,0-.64-4.14,0-10.11l4.5-2.76,1.93,2.76-.64,1.88.64,5.48s.64,5.06.64,6.9c0,0,1.28,5.06,3.85,9.2,0,0,5.14-1.38,9.63-3.22l5.78-1.84s1.28-3.22,1.28-8.28c0,0,0-5.52.64-10.57,0,0,0-5.06,3.85-8.28l2.57-2.76-2.57,8.74,2.57,9.19s-.64,5.52-2.57,10.11c0,0,.64,2.76,0,5.52l-3.21,2.3s-.64,4.14-.64,8.88v6.29l1.81-2.16,2.04-2.43s1.6-2.57,4.16-5.46c-.22-.08-.42-.17-.61-.28-2.87-2-.56-5.16,3.58-4.36,3.21.18,7.15.96,9.88,1.82,2.48.8,2.75-.15,2.44-1.44-.74-5.76-2.88-15.51-3.23-21.89-.09-2.4.22-4.9-.46-7.25-.67-2.22-2.42-4.5-2.82-6.9-.53-6.63-.03-13.04-1.31-19.65-.14-7.3.72-14.51.41-21.84.34-11.76-2.87-23.55-4.54-35.1-.05-6.96-.38-13.89-.51-20.92-.3-1.09-.8-2.16-1.38-3.22-.16.19-.34.35-.55.48-1.35.82-3.71.24-5.37-1.05h-16.98l1.3,3.96s1.28,5.98,0,11.81c0,0-3.85,3.82-8.35,5.66,0,0-3.85,0-7.71,4.6h-8.35v-4.6l-4.17-14.71s.4-3.28,1.15-6.72h-20.05c-.04,4.78.17,9.54,2.51,14.07.96,4.24,2.13,8.53,3.43,12.63.24,3.03-2.16,6.93,1.48,9.29,2.92,2.56,10.31-.45,11.2,3.59.5,4.51-.6,8.13-.17,12.86-.07,3.7.77,8.03.16,11.56-1.69-.36-3.47-3.17-5.59-2.52-1.74,1.4-1.16,8.37,0,10.04,5.16,5.37,5.66,4.05,1.54,10.27-2.34,5.63-3.74,11.59-6.35,17.1-3.6,6.7-6.1,13.15-5.25,20.25.3,2.89.38,5.95.95,8.75,3.71,7.33,11.28,3.4,12.41,17.89.97,4.67,3.49,10.28,5.32,15.5h15.09c-.09-.61-.17-1.23-.23-1.83ZM961.12,109.35c-2.21,1.34-7.14-1.06-7.23-4.21-.06-2.19,2.21-4.69,4.6-4.51,2.17.16,3.31,2.45,3.49,2.82.97,2.03.71,4.94-.86,5.9ZM990.31,5.72c2.17.16,3.31,2.45,3.49,2.82.97,2.03.71,4.94-.86,5.9-2.21,1.34-7.14-1.06-7.23-4.21-.06-2.19,2.21-4.69,4.6-4.51ZM953.53,73.28l12.2,5.98c0-5.98-1.28-8.74-1.28-8.74-3.21-6.9-7.71-10.11-7.71-10.11l12.85-.92c-10.28-5.52-12.85-7.36-12.85-7.36-.64-4.14,0-5.98,0-5.98.64-4.6,0-6.9,0-6.9,1.93-5.06,0-8.74,0-8.74,5.14-4.6,9.63,3.25,9.63,3.25,1.28,9.16,3.21,15.6,3.21,15.6l3.16,2.3,8.4-2.3-3.2-7.73,10.27,10.03-2.57-17.89,1.28-6.93c3.85-5.98,5.78-7.36,5.78-7.36l7.34,8.28-2.84,7.82-.64,16.09-3.72,2.3-.14,2.76-3.85,4.14-3.21,2.3c3.21,6.44,3.21,9.65,3.21,9.65,3.21-4.6,3.85-7.67,3.85-7.67l3.21-1.99,4.13,7.36v14.71l-2.84,5.98h-7.71c-8.35,3.68-8.35,0-8.35,0v-26.06l2.57-8.99c-3.85,1.94-2.57,4.24-2.57,4.24,0,4.75-4.5,19.31-4.5,19.31l-3.9,5.98,3.9,10.11c3.21,6.44,4.5,16.09,4.5,16.09v9.65l-8.4-4.6c-5.09-6.9-3.16-16.09-3.16-16.09l-3.85-5.52c-1.28-3.22-5.78-5.98-5.78-5.98-5.14-5.52-6.42-9.19-6.42-9.19v-6.9ZM947.64,129.33c-2.21,1.34-7.14-1.06-7.23-4.21-.06-2.19,2.21-4.69,4.6-4.51,2.17.16,3.31,2.45,3.49,2.82.97,2.03.71,4.94-.86,5.9ZM947.64,114.27c-2.21,1.34-7.14-1.06-7.23-4.21-.06-2.19,2.21-4.69,4.6-4.51,2.17.16,3.31,2.45,3.49,2.82.97,2.03.71,4.94-.86,5.9ZM947.64,93.44c-.06-2.19,2.21-4.69,4.6-4.51,2.17.16,3.31,2.45,3.49,2.82.97,2.03.71,4.94-.86,5.9-2.21,1.34-7.14-1.06-7.23-4.21ZM959.2,150.28c-2.21,1.34-7.14-1.06-7.23-4.21-.06-2.19,2.21-4.69,4.6-4.51,2.17.16,3.31,2.45,3.49,2.82.97,2.03.71,4.94-.86,5.9Z"/>
      <path class="cls-1" d="M888.05,147.98l-.86-7.82s-4.5-5.06-5.78-1.84l-1.93,9.65-1.28,8.97-.31,4.36h10.16v-13.32Z"/>
      <path class="cls-1" d="M926.45,142.46c-2.25-2.36-8.16-.58-7.67,2.25.08,5.24,3.44,11.2,4.01,16.51,0,.03-.01.05-.02.08h6.59c-.56-1.54-1-3.23-1.01-5.22-.9-4.59-.25-9.27-1.9-13.61Z"/>
      <path class="cls-1" d="M918.2,161.3c-.09-2.09-.62-4.47-1.65-7.94-1.34-3.23-.56-9.06-4.24-10.91-1.81-.64-4.64-.15-6.24-1.13-2.87-2-.56-5.16,3.58-4.36,3.21.18,7.15.96,9.88,1.82,2.48.8,2.75-.15,2.44-1.44-.74-5.76-2.88-15.51-3.23-21.89-.09-2.4.22-4.9-.46-7.25-.67-2.22-2.42-4.5-2.82-6.9-.53-6.63-.03-13.04-1.31-19.65-.14-7.3.72-14.51.41-21.84.34-11.76-2.87-23.55-4.54-35.1-.05-6.96-.38-13.89-.51-20.92-.35-1.29-.99-2.55-1.7-3.79h-4.98c-.23.44-.54.81-.94,1.05-1.35.82-3.71.24-5.37-1.05h-16.98l1.3,3.96s1.28,5.98,0,11.81c0,0-3.85,3.82-8.35,5.66,0,0-3.85,0-7.71,4.6h-8.35v-4.6l-4.17-14.71s.4-3.28,1.15-6.72h-20.05c-.04,4.78.16,9.54,2.51,14.07.96,4.24,2.13,8.53,3.43,12.63.24,3.03-2.16,6.93,1.48,9.29,2.92,2.56,10.31-.45,11.2,3.59.5,4.51-.6,8.13-.17,12.86-.07,3.7.77,8.03.16,11.56-1.69-.36-3.47-3.17-5.59-2.52-1.74,1.4-1.16,8.37,0,10.04,5.16,5.37,5.66,4.05,1.54,10.27-2.34,5.63-3.74,11.59-6.35,17.1-3.6,6.7-6.1,13.15-5.25,20.25.3,2.89.38,5.95.95,8.75,3.71,7.33,11.28,3.4,12.41,17.89.97,4.67,3.49,10.28,5.32,15.5h15.09c-.09-.61-.17-1.23-.23-1.83,0,0,0-5.98,2.57-11.03v-9.2h-3.21l-4.83-2.3h-4.81s-.64-6.9,5.14-14.71c0,0-.64-4.14,0-10.11l4.5-2.76,1.93,2.76-.64,1.88.64,5.48s.64,5.06.64,6.9c0,0,1.28,5.06,3.85,9.2,0,0,5.14-1.38,9.63-3.22l5.78-1.84s1.28-3.22,1.28-8.28c0,0,0-5.52.64-10.57,0,0,0-5.06,3.85-8.28l2.57-2.76-2.57,8.74,2.57,9.19s-.64,5.52-2.57,10.11c0,0,.64,2.76,0,5.52l-3.21,2.3s-.64,4.14-.64,8.88v6.29l1.81-2.16,2.04-2.43s2.57-4.14,6.42-7.82v6.13s-1.28,1.23,0,4.45c0,0-1.28,3.22,0,7.13v4.36h14.95ZM894.92,5.72c2.17.16,3.31,2.45,3.49,2.82.97,2.03.71,4.94-.86,5.9-2.21,1.34-7.14-1.06-7.23-4.21-.06-2.19,2.21-4.69,4.6-4.51ZM852.25,129.33c-2.21,1.34-7.14-1.06-7.23-4.21-.06-2.19,2.21-4.69,4.6-4.51,2.17.16,3.31,2.45,3.49,2.82.97,2.03.71,4.94-.86,5.9ZM852.25,114.27c-2.21,1.34-7.14-1.06-7.23-4.21-.06-2.19,2.21-4.69,4.6-4.51,2.17.16,3.31,2.45,3.49,2.82.97,2.03.71,4.94-.86,5.9ZM852.25,93.44c-.06-2.19,2.21-4.69,4.6-4.51,2.17.16,3.31,2.45,3.49,2.82.97,2.03.71,4.94-.86,5.9-2.21,1.34-7.14-1.06-7.23-4.21ZM861.19,141.56c2.17.16,3.31,2.45,3.49,2.82.97,2.03.71,4.94-.86,5.9-2.21,1.34-7.14-1.06-7.23-4.21-.06-2.19,2.21-4.69,4.6-4.51ZM865.74,109.35c-2.21,1.34-7.14-1.06-7.23-4.21-.06-2.19,2.21-4.69,4.6-4.51,2.17.16,3.31,2.45,3.49,2.82.97,2.03.71,4.94-.86,5.9ZM901.82,91.21h-7.71c-8.35,3.68-8.35,0-8.35,0v-26.06l2.57-8.99c-3.85,1.94-2.57,4.24-2.57,4.24,0,4.75-4.5,19.31-4.5,19.31l-3.9,5.98,3.9,10.11c3.21,6.44,4.5,16.09,4.5,16.09v9.65l-8.4-4.6c-5.09-6.9-3.16-16.09-3.16-16.09l-3.85-5.52c-1.28-3.22-5.78-5.98-5.78-5.98-5.14-5.52-6.42-9.19-6.42-9.19v-6.9l12.2,5.98c0-5.98-1.28-8.74-1.28-8.74-3.21-6.9-7.71-10.11-7.71-10.11l12.85-.92c-10.28-5.52-12.85-7.36-12.85-7.36-.64-4.14,0-5.98,0-5.98.64-4.6,0-6.9,0-6.9,1.93-5.06,0-8.74,0-8.74,5.14-4.6,9.63,3.25,9.63,3.25,1.28,9.16,3.21,15.6,3.21,15.6l3.16,2.3,8.4-2.3-3.2-7.73,10.27,10.03-2.57-17.89,1.28-6.93c3.85-5.98,5.78-7.36,5.78-7.36l7.34,8.28-2.84,7.82-.64,16.09-3.72,2.3-.14,2.76-3.85,4.14-3.21,2.3c3.21,6.44,3.21,9.65,3.21,9.65,3.21-4.6,3.85-7.67,3.85-7.67l3.21-1.99,4.13,7.36v14.71l-2.84,5.98Z"/>
      <path class="cls-1" d="M983.44,147.98l-.86-7.82s-4.5-5.06-5.78-1.84l-1.93,9.65-1.28,8.97-.31,4.36h10.16v-13.32Z"/>
      <path class="cls-1" d="M624.34,147.98l-.86-7.82s-4.5-5.06-5.78-1.84l-1.93,9.65-1.28,8.97-.31,4.36h10.16v-13.32Z"/>
      <path class="cls-1" d="M741.97,142.46c-2.25-2.36-8.16-.58-7.67,2.25.07,5.24,3.44,11.2,4.01,16.51,0,.03-.01.05-.02.08h6.59c-.56-1.54-1-3.23-1.01-5.22-.9-4.59-.25-9.27-1.9-13.61Z"/>
      <path class="cls-1" d="M657.05,142.46c-2.25-2.36-8.16-.58-7.67,2.25.08,5.24,3.44,11.2,4.01,16.51,0,.03-.01.05-.02.08h6.59c-.56-1.54-1-3.23-1.01-5.22-.9-4.59-.25-9.27-1.9-13.61Z"/>
      <path class="cls-1" d="M714.04,147.98l-.86-7.82s-4.5-5.06-5.78-1.84l-1.93,9.65-1.28,8.97-.31,4.36h10.16v-13.32Z"/>
      <path class="cls-1" d="M37.01,155.45c-.42-3.54.69-8.29-.56-11.71-.97-1.11-3.28-1.43-5.01-1.52-5.05-.1-1.76,6.51-1.84,8.66.58,2.74,2.36,5.31,2.91,8.02.07.8.13,1.6.17,2.4h9.06c-1.99-1.87-4.65-3.29-4.74-5.85Z"/>
      <path class="cls-1" d="M1477.95,155.45c-.42-3.54.69-8.29-.56-11.71-.97-1.11-3.28-1.43-5.01-1.52-5.05-.1-1.76,6.51-1.84,8.66.58,2.74,2.36,5.31,2.91,8.02.07.8.13,1.6.17,2.4h9.06c-1.99-1.87-4.65-3.29-4.74-5.85Z"/>
      <path class="cls-1" d="M1455.29,161.3c-.09-2.09-.62-4.47-1.65-7.94-1.34-3.23-.56-9.06-4.24-10.91-.25-.09-.52-.15-.79-.2v3.12s-1.28,1.23,0,4.45c0,0-1.28,3.22,0,7.13v4.36h6.69Z"/>
      <path class="cls-1" d="M1626.8,3.24c0,5.33,0,11.1,0,16.47-.2,5.84,4.33,11.72,4.53,17.49.06,18.43,0,36.98.03,55.42.23,5.56,2.5,12.53,3.45,17.96,2,8.03,3.06,18.77,5.52,26.04.74.7,2.28.9,2.97.27,1.24-1.89-1.51-4.22-2.18-6.12-1.48-2.6-.88-5.64-1-8.47-.65-12.42,6.02-26.18,4.87-39.17.16-5.05-2.17-9.77-3.04-14.75-.5-5.84-.08-11.76-.22-17.62-.71-10.12-3.36-20.63-2.6-30.69-.36-6.66-2.82-13.35-3.73-20.06h-8.87c.19,1.05.29,2.12.25,3.24Z"/>
      <path class="cls-1" d="M1579.47,2.12v7.75l4.5,8.65s-.64,1.99,3.21,2.91l3.85-2.91v-8.65s-2.7-4.8-5.09-9.87h-7.06l.59,2.12Z"/>
      <path class="cls-1" d="M1406.27,2.12v7.75l4.5,8.65s-.64,1.99,3.21,2.91l3.85-2.91v-8.65s-2.7-4.8-5.09-9.87h-7.06l.59,2.12Z"/>
      <path class="cls-1" d="M1502.33,159.47s0-5.98,2.57-11.03v-9.2h-3.21l-4.83-2.3h-4.81s-.64-6.9,5.14-14.71c0,0-.64-4.14,0-10.11l4.5-2.76,1.93,2.76-.64,1.88.64,5.48s.64,5.06.64,6.9c0,0,1.28,5.06,3.85,9.2,0,0,5.14-1.38,9.63-3.22l5.78-1.84s1.28-3.22,1.28-8.28c0,0,0-5.52.64-10.57,0,0,0-5.06,3.85-8.28l2.57-2.76-2.57,8.74,2.57,9.19s-.64,5.52-2.57,10.11c0,0,.64,2.76,0,5.52l-3.21,2.3s-.64,4.14-.64,8.88v6.29l1.81-2.16,2.04-2.43s1.43-2.3,3.75-5c-1.39-.1-2.84-.14-3.83-.75-2.87-2-.56-5.16,3.58-4.36,3.21.18,7.15.96,9.88,1.82,2.48.8,2.75-.15,2.44-1.44-.74-5.76-2.88-15.51-3.23-21.89-.09-2.4.22-4.9-.46-7.25-.67-2.22-2.42-4.5-2.82-6.9-.53-6.63-.03-13.04-1.31-19.65-.14-7.3.72-14.51.41-21.84.25-8.54-1.38-17.1-2.93-25.56l-.49,1.33-.64,16.09-3.72,2.3-.14,2.76-3.85,4.14-3.21,2.3c3.21,6.44,3.21,9.65,3.21,9.65,3.21-4.6,3.85-7.67,3.85-7.67l3.21-1.99,4.13,7.36v14.71l-2.84,5.98h-7.71c-8.35,3.68-8.35,0-8.35,0v-26.06l2.57-8.99c-3.85,1.94-2.57,4.24-2.57,4.24,0,4.75-4.5,19.31-4.5,19.31l-3.9,5.98,3.9,10.11c3.21,6.44,4.5,16.09,4.5,16.09v9.65l-8.4-4.6c-5.09-6.9-3.16-16.09-3.16-16.09l-3.85-5.52c-1.28-3.22-5.78-5.98-5.78-5.98-5.14-5.52-6.42-9.19-6.42-9.19v-6.9l12.2,5.98c0-5.98-1.28-8.74-1.28-8.74-3.21-6.9-7.71-10.11-7.71-10.11l12.85-.92c-10.28-5.52-12.85-7.36-12.85-7.36-.64-4.14,0-5.98,0-5.98.64-4.6,0-6.9,0-6.9,1.93-5.06,0-8.74,0-8.74,5.14-4.6,9.63,3.25,9.63,3.25,1.28,9.16,3.21,15.6,3.21,15.6l3.16,2.3,8.4-2.3-3.2-7.73,10.27,10.03-2.57-17.89,1.28-6.93c3.85-5.98,5.78-7.36,5.78-7.36l3.35,3.77c-.08-6.48-.37-12.93-.49-19.47-.23-.85-.59-1.68-1.01-2.51-.92-.22-1.87-.67-2.66-1.29h-16.98l1.3,3.96s1.28,5.98,0,11.81c0,0-3.85,3.82-8.35,5.66,0,0-3.85,0-7.71,4.6h-8.35v-4.6l-4.17-14.71s.4-3.28,1.15-6.72h-20.05c-.04,4.78.17,9.54,2.51,14.07.96,4.24,2.13,8.53,3.43,12.63.24,3.03-2.16,6.93,1.48,9.29,2.92,2.56,10.31-.45,11.2,3.59.5,4.51-.6,8.13-.17,12.86-.07,3.7.77,8.03.16,11.56-1.69-.36-3.47-3.17-5.59-2.52-1.74,1.4-1.16,8.37,0,10.04,5.16,5.37,5.66,4.05,1.54,10.27-2.34,5.63-3.74,11.59-6.35,17.1-3.6,6.7-6.1,13.15-5.25,20.25.3,2.89.38,5.95.95,8.75,3.71,7.33,11.28,3.4,12.41,17.89.97,4.67,3.49,10.28,5.32,15.5h15.09c-.09-.61-.17-1.23-.23-1.83ZM1527.4,5.72c2.17.16,3.31,2.45,3.49,2.82.97,2.03.71,4.94-.86,5.9-2.21,1.34-7.14-1.06-7.23-4.21-.06-2.19,2.21-4.69,4.6-4.51ZM1495.59,100.63c2.17.16,3.31,2.45,3.49,2.82.97,2.03.71,4.94-.86,5.9-2.21,1.34-7.14-1.06-7.23-4.21-.06-2.19,2.21-4.69,4.6-4.51ZM1484.73,129.33c-2.21,1.34-7.14-1.06-7.23-4.21-.06-2.19,2.21-4.69,4.6-4.51,2.17.16,3.31,2.45,3.49,2.82.97,2.03.71,4.94-.86,5.9ZM1484.73,114.27c-2.21,1.34-7.14-1.06-7.23-4.21-.06-2.19,2.21-4.69,4.6-4.51,2.17.16,3.31,2.45,3.49,2.82.97,2.03.71,4.94-.86,5.9ZM1484.73,93.44c-.06-2.19,2.21-4.69,4.6-4.51,2.17.16,3.31,2.45,3.49,2.82.97,2.03.71,4.94-.86,5.9-2.21,1.34-7.14-1.06-7.23-4.21ZM1496.29,150.28c-2.21,1.34-7.14-1.06-7.23-4.21-.06-2.19,2.21-4.69,4.6-4.51,2.17.16,3.31,2.45,3.49,2.82.97,2.03.71,4.94-.86,5.9Z"/>
      <path class="cls-1" d="M1451.63,3.24c0,5.33,0,11.1,0,16.47-.2,5.84,4.33,11.72,4.53,17.49.06,18.43,0,36.98.03,55.42.23,5.56,2.5,12.53,3.45,17.96,2,8.03,3.06,18.77,5.52,26.04.74.7,2.28.9,2.97.27,1.24-1.89-1.51-4.22-2.18-6.12-1.48-2.6-.88-5.64-1-8.47-.65-12.42,6.02-26.18,4.87-39.17.16-5.05-2.17-9.77-3.04-14.75-.5-5.84-.08-11.76-.22-17.62-.71-10.12-3.36-20.63-2.6-30.69-.36-6.66-2.82-13.35-3.73-20.06h-8.87c.19,1.05.29,2.12.25,3.24Z"/>
      <path class="cls-1" d="M1368.16,161.3c-.09-2.09-.62-4.47-1.65-7.94-1.34-3.23-.56-9.06-4.24-10.91-.95-.34-2.18-.36-3.37-.45v3.37s-1.28,1.23,0,4.45c0,0-1.28,3.22,0,7.13v4.36h9.26Z"/>
      <path class="cls-1" d="M1116.64,155.45c-.42-3.54.69-8.29-.56-11.71-.97-1.11-3.28-1.43-5.01-1.52-5.05-.1-1.76,6.51-1.84,8.66.58,2.74,2.36,5.31,2.91,8.02.07.8.13,1.6.17,2.4h9.06c-1.99-1.87-4.65-3.29-4.74-5.85Z"/>
      <path class="cls-1" d="M1653.12,155.45c-.42-3.54.69-8.29-.56-11.71-.97-1.11-3.28-1.43-5.01-1.52-5.05-.1-1.76,6.51-1.84,8.66.58,2.74,2.36,5.31,2.91,8.02.07.8.13,1.6.17,2.4h9.06c-1.99-1.87-4.65-3.29-4.74-5.85Z"/>
      <path class="cls-1" d="M1630.46,161.3c-.09-2.09-.62-4.47-1.65-7.94-1.34-3.23-.56-9.06-4.24-10.91-.79-.28-1.78-.34-2.77-.41v3.33s-1.28,1.23,0,4.45c0,0-1.28,3.22,0,7.13v4.36h8.66Z"/>
      <path class="cls-1" d="M1364.51,3.24c0,5.33,0,11.1,0,16.47-.2,5.84,4.33,11.72,4.53,17.49.06,18.43,0,36.98.03,55.42.23,5.56,2.5,12.53,3.45,17.96,2,8.03,3.06,18.77,5.52,26.04.74.7,2.28.9,2.97.27,1.24-1.89-1.51-4.22-2.18-6.12-1.48-2.6-.88-5.64-1-8.47-.65-12.42,6.02-26.18,4.87-39.17.16-5.05-2.17-9.77-3.04-14.75-.5-5.84-.08-11.76-.22-17.62-.71-10.12-3.36-20.63-2.6-30.69-.36-6.66-2.82-13.35-3.73-20.06h-8.87c.19,1.05.29,2.12.25,3.24Z"/>
      <path class="cls-1" d="M1141.02,159.47s0-5.98,2.57-11.03v-9.2h-3.21l-4.83-2.3h-4.81s-.64-6.9,5.14-14.71c0,0-.64-4.14,0-10.11l4.5-2.76,1.93,2.76-.64,1.88.64,5.48s.64,5.06.64,6.9c0,0,1.28,5.06,3.85,9.2,0,0,5.14-1.38,9.63-3.22l5.78-1.84s1.28-3.22,1.28-8.28c0,0,0-5.52.64-10.57,0,0,0-5.06,3.85-8.28l2.57-2.76-2.57,8.74,2.57,9.19s-.64,5.52-2.57,10.11c0,0,.64,2.76,0,5.52l-3.21,2.3s-.64,4.14-.64,8.88v6.29l1.81-2.16,2.04-2.43s1.55-2.49,4.04-5.32c-.4-.1-.78-.22-1.09-.42-2.87-2-.56-5.16,3.58-4.36,3.21.18,7.15.96,9.88,1.82,2.48.8,2.75-.15,2.44-1.44-.74-5.76-2.88-15.51-3.23-21.89-.09-2.4.22-4.9-.46-7.25-.67-2.22-2.42-4.5-2.82-6.9-.53-6.63-.03-13.04-1.31-19.65-.14-7.3.72-14.51.41-21.84.3-10.42-2.19-20.87-3.92-31.15l-2.52,6.92-.64,16.09-3.72,2.3-.14,2.76-3.85,4.14-3.21,2.3c3.21,6.44,3.21,9.65,3.21,9.65,3.21-4.6,3.85-7.67,3.85-7.67l3.21-1.99,4.13,7.36v14.71l-2.84,5.98h-7.71c-8.35,3.68-8.35,0-8.35,0v-26.06l2.57-8.99c-3.85,1.94-2.57,4.24-2.57,4.24,0,4.75-4.5,19.31-4.5,19.31l-3.9,5.98,3.9,10.11c3.21,6.44,4.5,16.09,4.5,16.09v9.65l-8.4-4.6c-5.09-6.9-3.16-16.09-3.16-16.09l-3.85-5.52c-1.28-3.22-5.78-5.98-5.78-5.98-5.14-5.52-6.42-9.19-6.42-9.19v-6.9l12.2,5.98c0-5.98-1.28-8.74-1.28-8.74-3.21-6.9-7.71-10.11-7.71-10.11l12.85-.92c-10.28-5.52-12.85-7.36-12.85-7.36-.64-4.14,0-5.98,0-5.98.64-4.6,0-6.9,0-6.9,1.93-5.06,0-8.74,0-8.74,5.14-4.6,9.63,3.25,9.63,3.25,1.28,9.16,3.21,15.6,3.21,15.6l3.16,2.3,8.4-2.3-3.2-7.73,10.27,10.03-2.57-17.89,1.28-6.93c3.85-5.98,5.78-7.36,5.78-7.36l6.76,7.62c-.13-.8-.25-1.6-.37-2.4-.05-6.96-.38-13.89-.51-20.92-.26-.97-.69-1.92-1.19-2.86-.05.03-.08.08-.14.11-1.35.82-3.71.24-5.37-1.05h-16.98l1.3,3.96s1.28,5.98,0,11.81c0,0-3.85,3.82-8.35,5.66,0,0-3.85,0-7.71,4.6h-8.35v-4.6l-4.17-14.71s.4-3.28,1.15-6.72h-20.05c-.04,4.78.17,9.54,2.51,14.07.96,4.24,2.13,8.53,3.43,12.63.24,3.03-2.16,6.93,1.48,9.29,2.92,2.56,10.31-.45,11.2,3.59.5,4.51-.6,8.13-.17,12.86-.07,3.7.77,8.03.16,11.56-1.69-.36-3.47-3.17-5.59-2.52-1.74,1.4-1.16,8.37,0,10.04,5.16,5.37,5.66,4.05,1.54,10.27-2.34,5.63-3.74,11.59-6.35,17.1-3.6,6.7-6.1,13.15-5.25,20.25.3,2.89.38,5.95.95,8.75,3.71,7.33,11.28,3.4,12.41,17.89.97,4.67,3.49,10.28,5.32,15.5h15.09c-.09-.61-.17-1.23-.23-1.83ZM1166.09,5.72c2.17.16,3.31,2.45,3.49,2.82.97,2.03.71,4.94-.86,5.9-2.21,1.34-7.14-1.06-7.23-4.21-.06-2.19,2.21-4.69,4.6-4.51ZM1134.27,100.63c2.17.16,3.31,2.45,3.49,2.82.97,2.03.71,4.94-.86,5.9-2.21,1.34-7.14-1.06-7.23-4.21-.06-2.19,2.21-4.69,4.6-4.51ZM1123.42,129.33c-2.21,1.34-7.14-1.06-7.23-4.21-.06-2.19,2.21-4.69,4.6-4.51,2.17.16,3.31,2.45,3.49,2.82.97,2.03.71,4.94-.86,5.9ZM1123.42,114.27c-2.21,1.34-7.14-1.06-7.23-4.21-.06-2.19,2.21-4.69,4.6-4.51,2.17.16,3.31,2.45,3.49,2.82.97,2.03.71,4.94-.86,5.9ZM1123.42,93.44c-.06-2.19,2.21-4.69,4.6-4.51,2.17.16,3.31,2.45,3.49,2.82.97,2.03.71,4.94-.86,5.9-2.21,1.34-7.14-1.06-7.23-4.21ZM1134.98,150.28c-2.21,1.34-7.14-1.06-7.23-4.21-.06-2.19,2.21-4.69,4.6-4.51,2.17.16,3.31,2.45,3.49,2.82.97,2.03.71,4.94-.86,5.9Z"/>
      <path class="cls-1" d="M1564.02,155.45c-.42-3.54.69-8.29-.56-11.71-.97-1.11-3.28-1.43-5.01-1.52-5.05-.1-1.76,6.51-1.84,8.66.58,2.74,2.36,5.31,2.91,8.02.07.8.13,1.6.17,2.4h9.06c-1.99-1.87-4.65-3.29-4.74-5.85Z"/>
      <path class="cls-1" d="M1274.81,19.7c-.2,5.84,4.33,11.72,4.53,17.49.06,18.43,0,36.98.03,55.42.23,5.56,2.5,12.53,3.45,17.96,2,8.03,3.06,18.77,5.52,26.04.74.7,2.28.9,2.97.27,1.24-1.89-1.51-4.22-2.18-6.12-1.48-2.6-.88-5.64-1-8.47-.65-12.42,6.02-26.18,4.87-39.17.16-5.05-2.17-9.77-3.04-14.75-.5-5.84-.08-11.76-.22-17.62-.71-10.12-3.36-20.63-2.6-30.69-.36-6.66-2.82-13.35-3.73-20.06h-8.87c.19,1.05.29,2.12.25,3.24,0,5.33,0,11.1,0,16.47Z"/>
      <path class="cls-1" d="M1316.57,2.12v7.75l4.5,8.65s-.64,1.99,3.21,2.91l3.85-2.91v-8.65s-2.7-4.8-5.09-9.87h-7.06l.59,2.12Z"/>
      <path class="cls-1" d="M1325.5,159.47s0-5.98,2.57-11.03v-9.2h-3.21l-4.83-2.3h-4.81s-.64-6.9,5.14-14.71c0,0-.64-4.14,0-10.11l4.5-2.76,1.93,2.76-.64,1.88.64,5.48s.64,5.06.64,6.9c0,0,1.28,5.06,3.85,9.2,0,0,5.14-1.38,9.63-3.22l5.78-1.84s1.28-3.22,1.28-8.28c0,0,0-5.52.64-10.57,0,0,0-5.06,3.85-8.28l2.57-2.76-2.57,8.74,2.57,9.19s-.64,5.52-2.57,10.11c0,0,.64,2.76,0,5.52l-3.21,2.3s-.64,4.14-.64,8.88v6.29l1.81-2.16,2.04-2.43s1.6-2.57,4.16-5.46c-.22-.08-.42-.17-.61-.28-2.87-2-.56-5.16,3.58-4.36,3.21.18,7.15.96,9.88,1.82,2.48.8,2.75-.15,2.44-1.44-.74-5.76-2.88-15.51-3.23-21.89-.09-2.4.22-4.9-.46-7.25-.67-2.22-2.42-4.5-2.82-6.9-.53-6.63-.03-13.04-1.31-19.65-.14-7.3.72-14.51.41-21.84.34-11.76-2.87-23.55-4.54-35.1-.05-6.96-.38-13.89-.51-20.92-.3-1.09-.8-2.16-1.38-3.22-.16.19-.34.35-.55.48-1.35.82-3.71.24-5.37-1.05h-16.98l1.3,3.96s1.28,5.98,0,11.81c0,0-3.85,3.82-8.35,5.66,0,0-3.85,0-7.71,4.6h-8.35v-4.6l-4.17-14.71s.4-3.28,1.15-6.72h-20.05c-.04,4.78.17,9.54,2.51,14.07.96,4.24,2.13,8.53,3.43,12.63.24,3.03-2.16,6.93,1.48,9.29,2.92,2.56,10.31-.45,11.2,3.59.5,4.51-.6,8.13-.17,12.86-.07,3.7.77,8.03.16,11.56-1.69-.36-3.47-3.17-5.59-2.52-1.74,1.4-1.16,8.37,0,10.04,5.16,5.37,5.66,4.05,1.54,10.27-2.34,5.63-3.74,11.59-6.35,17.1-3.6,6.7-6.1,13.15-5.25,20.25.3,2.89.38,5.95.95,8.75,3.71,7.33,11.28,3.4,12.41,17.89.97,4.67,3.49,10.28,5.32,15.5h15.09c-.09-.61-.17-1.23-.23-1.83ZM1321.39,109.35c-2.21,1.34-7.14-1.06-7.23-4.21-.06-2.19,2.21-4.69,4.6-4.51,2.17.16,3.31,2.45,3.49,2.82.97,2.03.71,4.94-.86,5.9ZM1350.57,5.72c2.17.16,3.31,2.45,3.49,2.82.97,2.03.71,4.94-.86,5.9-2.21,1.34-7.14-1.06-7.23-4.21-.06-2.19,2.21-4.69,4.6-4.51ZM1313.79,73.28l12.2,5.98c0-5.98-1.28-8.74-1.28-8.74-3.21-6.9-7.71-10.11-7.71-10.11l12.85-.92c-10.28-5.52-12.85-7.36-12.85-7.36-.64-4.14,0-5.98,0-5.98.64-4.6,0-6.9,0-6.9,1.93-5.06,0-8.74,0-8.74,5.14-4.6,9.63,3.25,9.63,3.25,1.28,9.16,3.21,15.6,3.21,15.6l3.16,2.3,8.4-2.3-3.2-7.73,10.27,10.03-2.57-17.89,1.28-6.93c3.85-5.98,5.78-7.36,5.78-7.36l7.34,8.28-2.84,7.82-.64,16.09-3.72,2.3-.14,2.76-3.85,4.14-3.21,2.3c3.21,6.44,3.21,9.65,3.21,9.65,3.21-4.6,3.85-7.67,3.85-7.67l3.21-1.99,4.13,7.36v14.71l-2.84,5.98h-7.71c-8.35,3.68-8.35,0-8.35,0v-26.06l2.57-8.99c-3.85,1.94-2.57,4.24-2.57,4.24,0,4.75-4.5,19.31-4.5,19.31l-3.9,5.98,3.9,10.11c3.21,6.44,4.5,16.09,4.5,16.09v9.65l-8.4-4.6c-5.09-6.9-3.16-16.09-3.16-16.09l-3.85-5.52c-1.28-3.22-5.78-5.98-5.78-5.98-5.14-5.52-6.42-9.19-6.42-9.19v-6.9ZM1307.9,129.33c-2.21,1.34-7.14-1.06-7.23-4.21-.06-2.19,2.21-4.69,4.6-4.51,2.17.16,3.31,2.45,3.49,2.82.97,2.03.71,4.94-.86,5.9ZM1307.9,114.27c-2.21,1.34-7.14-1.06-7.23-4.21-.06-2.19,2.21-4.69,4.6-4.51,2.17.16,3.31,2.45,3.49,2.82.97,2.03.71,4.94-.86,5.9ZM1307.9,93.44c-.06-2.19,2.21-4.69,4.6-4.51,2.17.16,3.31,2.45,3.49,2.82.97,2.03.71,4.94-.86,5.9-2.21,1.34-7.14-1.06-7.23-4.21ZM1319.46,150.28c-2.21,1.34-7.14-1.06-7.23-4.21-.06-2.19,2.21-4.69,4.6-4.51,2.17.16,3.31,2.45,3.49,2.82.97,2.03.71,4.94-.86,5.9Z"/>
      <path class="cls-1" d="M1301.12,155.45c-.42-3.54.69-8.29-.56-11.71-.97-1.11-3.28-1.43-5.01-1.52-5.05-.1-1.76,6.51-1.84,8.66.58,2.74,2.36,5.31,2.91,8.02.07.8.13,1.6.17,2.4h9.06c-1.99-1.87-4.65-3.29-4.74-5.85Z"/>
      <path class="cls-1" d="M1588.4,159.47s0-5.98,2.57-11.03v-9.2h-3.21l-4.83-2.3h-4.81s-.64-6.9,5.14-14.71c0,0-.64-4.14,0-10.11l4.5-2.76,1.93,2.76-.64,1.88.64,5.48s.64,5.06.64,6.9c0,0,1.28,5.06,3.85,9.2,0,0,5.14-1.38,9.63-3.22l5.78-1.84s1.28-3.22,1.28-8.28c0,0,0-5.52.64-10.57,0,0,0-5.06,3.85-8.28l2.57-2.76-2.57,8.74,2.57,9.19s-.64,5.52-2.57,10.11c0,0,.64,2.76,0,5.52l-3.21,2.3s-.64,4.14-.64,8.88v6.29l1.81-2.16,2.04-2.43s1.55-2.49,4.04-5.32c-.4-.1-.78-.22-1.09-.42-2.87-2-.56-5.16,3.58-4.36,3.21.18,7.15.96,9.88,1.82,2.48.8,2.75-.15,2.44-1.44-.74-5.76-2.88-15.51-3.23-21.89-.09-2.4.22-4.9-.46-7.25-.67-2.22-2.42-4.5-2.82-6.9-.53-6.63-.03-13.04-1.31-19.65-.14-7.3.72-14.51.41-21.84.3-10.42-2.19-20.87-3.92-31.15l-2.52,6.92-.64,16.09-3.72,2.3-.14,2.76-3.85,4.14-3.21,2.3c3.21,6.44,3.21,9.65,3.21,9.65,3.21-4.6,3.85-7.67,3.85-7.67l3.21-1.99,4.13,7.36v14.71l-2.84,5.98h-7.71c-8.35,3.68-8.35,0-8.35,0v-26.06l2.57-8.99c-3.85,1.94-2.57,4.24-2.57,4.24,0,4.75-4.5,19.31-4.5,19.31l-3.9,5.98,3.9,10.11c3.21,6.44,4.5,16.09,4.5,16.09v9.65l-8.4-4.6c-5.09-6.9-3.16-16.09-3.16-16.09l-3.85-5.52c-1.28-3.22-5.78-5.98-5.78-5.98-5.14-5.52-6.42-9.19-6.42-9.19v-6.9l12.2,5.98c0-5.98-1.28-8.74-1.28-8.74-3.21-6.9-7.71-10.11-7.71-10.11l12.85-.92c-10.28-5.52-12.85-7.36-12.85-7.36-.64-4.14,0-5.98,0-5.98.64-4.6,0-6.9,0-6.9,1.93-5.06,0-8.74,0-8.74,5.14-4.6,9.63,3.25,9.63,3.25,1.28,9.16,3.21,15.6,3.21,15.6l3.16,2.3,8.4-2.3-3.2-7.73,10.27,10.03-2.57-17.89,1.28-6.93c3.85-5.98,5.78-7.36,5.78-7.36l6.76,7.62c-.13-.8-.25-1.6-.37-2.4-.05-6.96-.38-13.89-.51-20.92-.26-.97-.69-1.92-1.19-2.86-.05.03-.08.08-.14.11-1.35.82-3.71.24-5.37-1.05h-16.98l1.3,3.96s1.28,5.98,0,11.81c0,0-3.85,3.82-8.35,5.66,0,0-3.85,0-7.71,4.6h-8.35v-4.6l-4.17-14.71s.4-3.28,1.15-6.72h-20.05c-.04,4.78.17,9.54,2.51,14.07.96,4.24,2.13,8.53,3.43,12.63.24,3.03-2.16,6.93,1.48,9.29,2.92,2.56,10.31-.45,11.2,3.59.5,4.51-.6,8.13-.17,12.86-.07,3.7.77,8.03.16,11.56-1.69-.36-3.47-3.17-5.59-2.52-1.74,1.4-1.16,8.37,0,10.04,5.16,5.37,5.66,4.05,1.54,10.27-2.34,5.63-3.74,11.59-6.35,17.1-3.6,6.7-6.1,13.15-5.25,20.25.3,2.89.38,5.95.95,8.75,3.71,7.33,11.28,3.4,12.41,17.89.97,4.67,3.49,10.28,5.32,15.5h15.09c-.09-.61-.17-1.23-.23-1.83ZM1613.47,5.72c2.17.16,3.31,2.45,3.49,2.82.97,2.03.71,4.94-.86,5.9-2.21,1.34-7.14-1.06-7.23-4.21-.06-2.19,2.21-4.69,4.6-4.51ZM1581.66,100.63c2.17.16,3.31,2.45,3.49,2.82.97,2.03.71,4.94-.86,5.9-2.21,1.34-7.14-1.06-7.23-4.21-.06-2.19,2.21-4.69,4.6-4.51ZM1570.8,129.33c-2.21,1.34-7.14-1.06-7.23-4.21-.06-2.19,2.21-4.69,4.6-4.51,2.17.16,3.31,2.45,3.49,2.82.97,2.03.71,4.94-.86,5.9ZM1570.8,114.27c-2.21,1.34-7.14-1.06-7.23-4.21-.06-2.19,2.21-4.69,4.6-4.51,2.17.16,3.31,2.45,3.49,2.82.97,2.03.71,4.94-.86,5.9ZM1570.8,93.44c-.06-2.19,2.21-4.69,4.6-4.51,2.17.16,3.31,2.45,3.49,2.82.97,2.03.71,4.94-.86,5.9-2.21,1.34-7.14-1.06-7.23-4.21ZM1582.36,150.28c-2.21,1.34-7.14-1.06-7.23-4.21-.06-2.19,2.21-4.69,4.6-4.51,2.17.16,3.31,2.45,3.49,2.82.97,2.03.71,4.94-.86,5.9Z"/>
      <path class="cls-1" d="M1221.18,2.12v7.75l4.5,8.65s-.64,1.99,3.21,2.91l3.85-2.91v-8.65s-2.7-4.8-5.09-9.87h-7.06l.59,2.12Z"/>
      <path class="cls-1" d="M1093.98,161.3c-.09-2.09-.62-4.47-1.65-7.94-1.31-3.15-.61-8.76-3.99-10.75v2.76s-1.28,1.23,0,4.45c0,0-1.28,3.22,0,7.13v4.36h5.64Z"/>
      <path class="cls-1" d="M1179.42,3.24c0,5.33,0,11.1,0,16.47-.2,5.84,4.33,11.72,4.53,17.49.06,18.43,0,36.98.03,55.42.23,5.56,2.5,12.53,3.45,17.96,2,8.03,3.06,18.77,5.52,26.04.74.7,2.28.9,2.97.27,1.24-1.89-1.51-4.22-2.18-6.12-1.48-2.6-.88-5.64-1-8.47-.65-12.42,6.02-26.18,4.87-39.17.16-5.05-2.17-9.77-3.04-14.75-.5-5.84-.08-11.76-.22-17.62-.71-10.12-3.36-20.63-2.6-30.69-.36-6.66-2.82-13.35-3.73-20.06h-8.87c.19,1.05.29,2.12.25,3.24Z"/>
      <path class="cls-1" d="M1132.09,2.12v7.75l4.5,8.65s-.64,1.99,3.21,2.91l3.85-2.91v-8.65s-2.7-4.8-5.09-9.87h-7.06l.59,2.12Z"/>
      <path class="cls-1" d="M1205.74,155.45c-.42-3.54.69-8.29-.56-11.71-.97-1.11-3.28-1.43-5.01-1.52-5.05-.1-1.76,6.51-1.84,8.66.58,2.74,2.36,5.31,2.91,8.02.07.8.13,1.6.17,2.4h9.06c-1.99-1.87-4.65-3.29-4.74-5.85Z"/>
      <path class="cls-1" d="M1183.07,161.3c-.09-2.09-.62-4.47-1.65-7.94-1.34-3.23-.56-9.06-4.24-10.91-.79-.28-1.78-.34-2.77-.41v3.33s-1.28,1.23,0,4.45c0,0-1.28,3.22,0,7.13v4.36h8.66Z"/>
      <path class="cls-1" d="M1415.21,159.47s0-5.98,2.57-11.03v-9.2h-3.21l-4.83-2.3h-4.81s-.64-6.9,5.14-14.71c0,0-.64-4.14,0-10.11l4.5-2.76,1.93,2.76-.64,1.88.64,5.48s.64,5.06.64,6.9c0,0,1.28,5.06,3.85,9.2,0,0,5.14-1.38,9.63-3.22l5.78-1.84s1.28-3.22,1.28-8.28c0,0,0-5.52.64-10.57,0,0,0-5.06,3.85-8.28l2.57-2.76-2.57,8.74,2.57,9.19s-.64,5.52-2.57,10.11c0,0,.64,2.76,0,5.52l-3.21,2.3s-.64,4.14-.64,8.88v6.29l1.81-2.16,2.04-2.43s1.45-2.34,3.81-5.07c-1.06-.08-2.09-.22-2.84-.67-2.87-2-.56-5.16,3.58-4.36,3.21.18,7.15.96,9.88,1.82,2.48.8,2.75-.15,2.44-1.44-.74-5.76-2.88-15.51-3.23-21.89-.09-2.4.22-4.9-.46-7.25-.67-2.22-2.42-4.5-2.82-6.9-.53-6.63-.03-13.04-1.31-19.65-.14-7.3.72-14.51.41-21.84.27-9.19-1.64-18.4-3.28-27.49l-1.19,3.26-.64,16.09-3.72,2.3-.14,2.76-3.85,4.14-3.21,2.3c3.21,6.44,3.21,9.65,3.21,9.65,3.21-4.6,3.85-7.67,3.85-7.67l3.21-1.99,4.13,7.36v14.71l-2.84,5.98h-7.71c-8.35,3.68-8.35,0-8.35,0v-26.06l2.57-8.99c-3.85,1.94-2.57,4.24-2.57,4.24,0,4.75-4.5,19.31-4.5,19.31l-3.9,5.98,3.9,10.11c3.21,6.44,4.5,16.09,4.5,16.09v9.65l-8.4-4.6c-5.09-6.9-3.16-16.09-3.16-16.09l-3.85-5.52c-1.28-3.22-5.78-5.98-5.78-5.98-5.14-5.52-6.42-9.19-6.42-9.19v-6.9l12.2,5.98c0-5.98-1.28-8.74-1.28-8.74-3.21-6.9-7.71-10.11-7.71-10.11l12.85-.92c-10.28-5.52-12.85-7.36-12.85-7.36-.64-4.14,0-5.98,0-5.98.64-4.6,0-6.9,0-6.9,1.93-5.06,0-8.74,0-8.74,5.14-4.6,9.63,3.25,9.63,3.25,1.28,9.16,3.21,15.6,3.21,15.6l3.16,2.3,8.4-2.3-3.2-7.73,10.27,10.03-2.57-17.89,1.28-6.93c3.85-5.98,5.78-7.36,5.78-7.36l4.41,4.98c-.06-6.88-.38-13.73-.51-20.68-.22-.8-.55-1.59-.94-2.37-1.23-.01-2.66-.56-3.78-1.43h-16.98l1.3,3.96s1.28,5.98,0,11.81c0,0-3.85,3.82-8.35,5.66,0,0-3.85,0-7.71,4.6h-8.35v-4.6l-4.17-14.71s.4-3.28,1.15-6.72h-20.05c-.04,4.78.17,9.54,2.51,14.07.96,4.24,2.13,8.53,3.43,12.63.24,3.03-2.16,6.93,1.48,9.29,2.92,2.56,10.31-.45,11.2,3.59.5,4.51-.6,8.13-.17,12.86-.07,3.7.77,8.03.16,11.56-1.69-.36-3.47-3.17-5.59-2.52-1.74,1.4-1.16,8.37,0,10.04,5.16,5.37,5.66,4.05,1.54,10.27-2.34,5.63-3.74,11.59-6.35,17.1-3.6,6.7-6.1,13.15-5.25,20.25.3,2.89.38,5.95.95,8.75,3.71,7.33,11.28,3.4,12.41,17.89.97,4.67,3.49,10.28,5.32,15.5h15.09c-.09-.61-.17-1.23-.23-1.83ZM1440.27,5.72c2.17.16,3.31,2.45,3.49,2.82.97,2.03.71,4.94-.86,5.9-2.21,1.34-7.14-1.06-7.23-4.21-.06-2.19,2.21-4.69,4.6-4.51ZM1408.46,100.63c2.17.16,3.31,2.45,3.49,2.82.97,2.03.71,4.94-.86,5.9-2.21,1.34-7.14-1.06-7.23-4.21-.06-2.19,2.21-4.69,4.6-4.51ZM1397.6,129.33c-2.21,1.34-7.14-1.06-7.23-4.21-.06-2.19,2.21-4.69,4.6-4.51,2.17.16,3.31,2.45,3.49,2.82.97,2.03.71,4.94-.86,5.9ZM1397.6,114.27c-2.21,1.34-7.14-1.06-7.23-4.21-.06-2.19,2.21-4.69,4.6-4.51,2.17.16,3.31,2.45,3.49,2.82.97,2.03.71,4.94-.86,5.9ZM1397.61,93.44c-.06-2.19,2.21-4.69,4.6-4.51,2.17.16,3.31,2.45,3.49,2.82.97,2.03.71,4.94-.86,5.9-2.21,1.34-7.14-1.06-7.23-4.21ZM1409.16,150.28c-2.21,1.34-7.14-1.06-7.23-4.21-.06-2.19,2.21-4.69,4.6-4.51,2.17.16,3.31,2.45,3.49,2.82.97,2.03.71,4.94-.86,5.9Z"/>
      <path class="cls-1" d="M1030.56,155.45c-.42-3.54.69-8.29-.56-11.71-.97-1.11-3.28-1.43-5.01-1.52-5.05-.1-1.76,6.51-1.84,8.66.58,2.74,2.36,5.31,2.91,8.02.07.8.13,1.6.17,2.4h9.06c-1.99-1.87-4.65-3.29-4.74-5.85Z"/>
      <path class="cls-1" d="M1493.4,2.12v7.75l4.5,8.65s-.64,1.99,3.21,2.91l3.85-2.91v-8.65s-2.7-4.8-5.09-9.87h-7.06l.59,2.12Z"/>
      <path class="cls-1" d="M1007.9,161.3c-.09-2.09-.62-4.47-1.65-7.94-1.34-3.23-.56-9.06-4.24-10.91-.95-.34-2.18-.36-3.37-.45v3.37s-1.28,1.23,0,4.45c0,0-1.28,3.22,0,7.13v4.36h9.26Z"/>
      <path class="cls-1" d="M1537.71,3.24c0,5.33,0,11.1,0,16.47-.2,5.84,4.33,11.72,4.53,17.49.06,18.43,0,36.98.03,55.42.23,5.56,2.5,12.53,3.45,17.96,2,8.03,3.06,18.77,5.52,26.04.74.7,2.28.9,2.97.27,1.24-1.89-1.51-4.22-2.18-6.12-1.48-2.6-.88-5.64-1-8.47-.65-12.42,6.02-26.18,4.87-39.17.16-5.05-2.17-9.77-3.04-14.75-.5-5.84-.08-11.76-.22-17.62-.71-10.12-3.36-20.63-2.6-30.69-.36-6.66-2.82-13.35-3.73-20.06h-8.87c.19,1.05.29,2.12.25,3.24Z"/>
      <path class="cls-1" d="M1722.19,19.7c-.2,5.84,4.33,11.72,4.53,17.49.06,18.43,0,36.98.03,55.42.23,5.56,2.5,12.53,3.45,17.96,2,8.03,3.06,18.77,5.52,26.04.74.7,2.28.9,2.97.27,1.24-1.89-1.51-4.22-2.18-6.12-1.48-2.6-.88-5.64-1-8.47-.65-12.42,6.02-26.18,4.87-39.17.16-5.05-2.17-9.77-3.04-14.75-.5-5.84-.08-11.76-.22-17.62-.71-10.12-3.36-20.63-2.6-30.69-.36-6.66-2.82-13.35-3.73-20.06h-8.87c.19,1.05.29,2.12.25,3.24,0,5.33,0,11.1,0,16.47Z"/>
      <path class="cls-1" d="M1004.25,3.24c0,5.33,0,11.1,0,16.47-.2,5.84,4.33,11.72,4.53,17.49.06,18.43,0,36.98.03,55.42.23,5.56,2.5,12.53,3.45,17.96,2,8.03,3.06,18.77,5.52,26.04.74.7,2.28.9,2.97.27,1.24-1.89-1.51-4.22-2.18-6.12-1.48-2.6-.88-5.64-1-8.47-.65-12.42,6.02-26.18,4.87-39.17.16-5.05-2.17-9.77-3.04-14.75-.5-5.84-.08-11.76-.22-17.62-.71-10.12-3.36-20.63-2.6-30.69-.36-6.66-2.82-13.35-3.73-20.06h-8.87c.19,1.05.29,2.12.25,3.24Z"/>
      <path class="cls-1" d="M956.31,2.12v7.75l4.5,8.65s-.64,1.99,3.21,2.91l3.85-2.91v-8.65s-2.7-4.8-5.09-9.87h-7.06l.59,2.12Z"/>
      <path class="cls-1" d="M1874.15,138.32l-1.93,9.65-1.28,8.97-.31,4.36h10.16v-13.32l-.86-7.82s-4.5-5.06-5.78-1.84Z"/>
      <path class="cls-1" d="M12.71,153.36c-1.34-3.23-.56-9.06-4.24-10.91-1.81-.64-4.64-.15-6.24-1.13-2.87-2-.56-5.16,3.58-4.36,3.21.18,7.15.96,9.88,1.82,2.48.8,2.75-.15,2.44-1.44-.74-5.76-2.88-15.51-3.23-21.89-.09-2.4.22-4.9-.46-7.25-.67-2.22-2.42-4.5-2.82-6.9-.53-6.63-.03-13.04-1.31-19.65-.14-7.3.72-14.51.41-21.84.34-11.76-2.87-23.55-4.54-35.1-.05-6.96-.38-13.89-.51-20.92-.35-1.29-.99-2.55-1.7-3.79H0v161.3h14.35c-.09-2.09-.62-4.47-1.65-7.94Z"/>
      <path class="cls-1" d="M1748.51,155.45c-.42-3.54.69-8.29-.56-11.71-.97-1.11-3.28-1.43-5.01-1.52-5.05-.1-1.76,6.51-1.84,8.66.58,2.74,2.36,5.31,2.91,8.02.07.8.13,1.6.17,2.4h9.06c-1.99-1.87-4.65-3.29-4.74-5.85Z"/>
      <path class="cls-1" d="M1895.55,0c-.23.44-.54.81-.94,1.05-1.35.82-3.71.24-5.37-1.05h-16.98l1.3,3.96s1.28,5.98,0,11.81c0,0-3.85,3.82-8.35,5.66,0,0-3.85,0-7.71,4.6h-8.35v-4.6l-4.17-14.71s.4-3.28,1.15-6.72h-20.05c-.04,4.78.17,9.54,2.51,14.07.96,4.24,2.13,8.53,3.43,12.63.24,3.03-2.16,6.93,1.48,9.29,2.92,2.56,10.31-.45,11.2,3.59.5,4.51-.6,8.13-.17,12.86-.07,3.7.77,8.03.16,11.56-1.69-.36-3.47-3.17-5.59-2.52-1.74,1.4-1.16,8.37,0,10.04,5.16,5.37,5.66,4.05,1.54,10.27-2.34,5.63-3.74,11.59-6.35,17.1-3.6,6.7-6.1,13.15-5.25,20.25.3,2.89.38,5.95.95,8.75,3.71,7.33,11.28,3.4,12.41,17.89.97,4.67,3.49,10.28,5.32,15.5h15.09c-.09-.61-.17-1.23-.23-1.83,0,0,0-5.98,2.57-11.03v-9.2h-3.21l-4.83-2.3h-4.81s-.64-6.9,5.14-14.71c0,0-.64-4.14,0-10.11l4.5-2.76,1.93,2.76-.64,1.88.64,5.48s.64,5.06.64,6.9c0,0,1.28,5.06,3.85,9.2,0,0,5.14-1.38,9.63-3.22l5.78-1.84s1.28-3.22,1.28-8.28c0,0,0-5.52.64-10.57,0,0,0-5.06,3.85-8.28l2.57-2.76-2.57,8.74,2.57,9.19s-.64,5.52-2.57,10.11c0,0,.64,2.76,0,5.52l-3.21,2.3s-.64,4.14-.64,8.88v6.29l1.81-2.16,2.04-2.43s2.57-4.14,6.42-7.82v6.13s-1.28,1.23,0,4.45c0,0-1.28,3.22,0,7.13v4.36h2.47V0h-2.9ZM1887.66,5.72c2.17.16,3.31,2.45,3.49,2.82.97,2.03.71,4.94-.86,5.9-2.21,1.34-7.14-1.06-7.23-4.21-.06-2.19,2.21-4.69,4.6-4.51ZM1844.99,129.33c-2.21,1.34-7.14-1.06-7.23-4.21-.06-2.19,2.21-4.69,4.6-4.51,2.17.16,3.31,2.45,3.49,2.82.97,2.03.71,4.94-.86,5.9ZM1844.99,114.27c-2.21,1.34-7.14-1.06-7.23-4.21-.06-2.19,2.21-4.69,4.6-4.51,2.17.16,3.31,2.45,3.49,2.82.97,2.03.71,4.94-.86,5.9ZM1844.99,93.44c-.06-2.19,2.21-4.69,4.6-4.51,2.17.16,3.31,2.45,3.49,2.82.97,2.03.71,4.94-.86,5.9-2.21,1.34-7.14-1.06-7.23-4.21ZM1853.92,141.56c2.17.16,3.31,2.45,3.49,2.82.97,2.03.71,4.94-.86,5.9-2.21,1.34-7.14-1.06-7.23-4.21-.06-2.19,2.21-4.69,4.6-4.51ZM1858.47,109.35c-2.21,1.34-7.14-1.06-7.23-4.21-.06-2.19,2.21-4.69,4.6-4.51,2.17.16,3.31,2.45,3.49,2.82.97,2.03.71,4.94-.86,5.9ZM1886.21,72.82c3.21-4.6,3.85-7.67,3.85-7.67l3.21-1.99,4.13,7.36v14.71l-2.84,5.98h-7.71c-8.35,3.68-8.35,0-8.35,0v-26.06l2.57-8.99c-3.85,1.94-2.57,4.24-2.57,4.24,0,4.75-4.5,19.31-4.5,19.31l-3.9,5.98,3.9,10.11c3.21,6.44,4.5,16.09,4.5,16.09v9.65l-8.4-4.6c-5.09-6.9-3.16-16.09-3.16-16.09l-3.85-5.52c-1.28-3.22-5.78-5.98-5.78-5.98-5.14-5.52-6.42-9.19-6.42-9.19v-6.9l12.2,5.98c0-5.98-1.28-8.74-1.28-8.74-3.21-6.9-7.71-10.11-7.71-10.11l12.85-.92c-10.28-5.52-12.85-7.36-12.85-7.36-.64-4.14,0-5.98,0-5.98.64-4.6,0-6.9,0-6.9,1.93-5.06,0-8.74,0-8.74,5.14-4.6,9.63,3.25,9.63,3.25,1.28,9.16,3.21,15.6,3.21,15.6l3.16,2.3,8.4-2.3-3.2-7.73,10.27,10.03-2.57-17.89,1.28-6.93c3.85-5.98,5.78-7.36,5.78-7.36l7.34,8.28-2.84,7.82-.64,16.09-3.72,2.3-.14,2.76-3.85,4.14-3.21,2.3c3.21,6.44,3.21,9.65,3.21,9.65Z"/>
      <path class="cls-1" d="M1541.36,161.3c-.09-2.09-.62-4.47-1.65-7.94-1.31-3.15-.61-8.76-3.99-10.75v2.76s-1.28,1.23,0,4.45c0,0-1.28,3.22,0,7.13v4.36h5.64Z"/>
      <path class="cls-1" d="M1772.89,159.47s0-5.98,2.57-11.03v-9.2h-3.21l-4.83-2.3h-4.81s-.64-6.9,5.14-14.71c0,0-.64-4.14,0-10.11l4.5-2.76,1.93,2.76-.64,1.88.64,5.48s.64,5.06.64,6.9c0,0,1.28,5.06,3.85,9.2,0,0,5.14-1.38,9.63-3.22l5.78-1.84s1.28-3.22,1.28-8.28c0,0,0-5.52.64-10.57,0,0,0-5.06,3.85-8.28l2.57-2.76-2.57,8.74,2.57,9.19s-.64,5.52-2.57,10.11c0,0,.64,2.76,0,5.52l-3.21,2.3s-.64,4.14-.64,8.88v6.29l1.81-2.16,2.04-2.43s1.6-2.57,4.16-5.46c-.22-.08-.42-.17-.61-.28-2.87-2-.56-5.16,3.58-4.36,3.21.18,7.15.96,9.88,1.82,2.48.8,2.75-.15,2.44-1.44-.74-5.76-2.88-15.51-3.23-21.89-.09-2.4.22-4.9-.46-7.25-.67-2.22-2.42-4.5-2.82-6.9-.53-6.63-.03-13.04-1.31-19.65-.14-7.3.72-14.51.41-21.84.34-11.76-2.87-23.55-4.54-35.1-.05-6.96-.38-13.89-.51-20.92-.3-1.09-.8-2.16-1.38-3.22-.16.19-.34.35-.55.48-1.35.82-3.71.24-5.37-1.05h-16.98l1.3,3.96s1.28,5.98,0,11.81c0,0-3.85,3.82-8.35,5.66,0,0-3.85,0-7.71,4.6h-8.35v-4.6l-4.17-14.71s.4-3.28,1.15-6.72h-20.05c-.04,4.78.17,9.54,2.51,14.07.96,4.24,2.13,8.53,3.43,12.63.24,3.03-2.16,6.93,1.48,9.29,2.92,2.56,10.31-.45,11.2,3.59.5,4.51-.6,8.13-.17,12.86-.07,3.7.77,8.03.16,11.56-1.69-.36-3.47-3.17-5.59-2.52-1.74,1.4-1.16,8.37,0,10.04,5.16,5.37,5.66,4.05,1.54,10.27-2.34,5.63-3.74,11.59-6.35,17.1-3.6,6.7-6.1,13.15-5.25,20.25.3,2.89.38,5.95.95,8.75,3.71,7.33,11.28,3.4,12.41,17.89.97,4.67,3.49,10.28,5.32,15.5h15.09c-.09-.61-.17-1.23-.23-1.83ZM1768.77,109.35c-2.21,1.34-7.14-1.06-7.23-4.21-.06-2.19,2.21-4.69,4.6-4.51,2.17.16,3.31,2.45,3.49,2.82.97,2.03.71,4.94-.86,5.9ZM1797.96,5.72c2.17.16,3.31,2.45,3.49,2.82.97,2.03.71,4.94-.86,5.9-2.21,1.34-7.14-1.06-7.23-4.21-.06-2.19,2.21-4.69,4.6-4.51ZM1761.18,73.28l12.2,5.98c0-5.98-1.28-8.74-1.28-8.74-3.21-6.9-7.71-10.11-7.71-10.11l12.85-.92c-10.28-5.52-12.85-7.36-12.85-7.36-.64-4.14,0-5.98,0-5.98.64-4.6,0-6.9,0-6.9,1.93-5.06,0-8.74,0-8.74,5.14-4.6,9.63,3.25,9.63,3.25,1.28,9.16,3.21,15.6,3.21,15.6l3.16,2.3,8.4-2.3-3.2-7.73,10.27,10.03-2.57-17.89,1.28-6.93c3.85-5.98,5.78-7.36,5.78-7.36l7.34,8.28-2.84,7.82-.64,16.09-3.72,2.3-.14,2.76-3.85,4.14-3.21,2.3c3.21,6.44,3.21,9.65,3.21,9.65,3.21-4.6,3.85-7.67,3.85-7.67l3.21-1.99,4.13,7.36v14.71l-2.84,5.98h-7.71c-8.35,3.68-8.35,0-8.35,0v-26.06l2.57-8.99c-3.85,1.94-2.57,4.24-2.57,4.24,0,4.75-4.5,19.31-4.5,19.31l-3.9,5.98,3.9,10.11c3.21,6.44,4.5,16.09,4.5,16.09v9.65l-8.4-4.6c-5.09-6.9-3.16-16.09-3.16-16.09l-3.85-5.52c-1.28-3.22-5.78-5.98-5.78-5.98-5.14-5.52-6.42-9.19-6.42-9.19v-6.9ZM1755.29,129.33c-2.21,1.34-7.14-1.06-7.23-4.21-.06-2.19,2.21-4.69,4.6-4.51,2.17.16,3.31,2.45,3.49,2.82.97,2.03.71,4.94-.86,5.9ZM1755.29,114.27c-2.21,1.34-7.14-1.06-7.23-4.21-.06-2.19,2.21-4.69,4.6-4.51,2.17.16,3.31,2.45,3.49,2.82.97,2.03.71,4.94-.86,5.9ZM1755.29,93.44c-.06-2.19,2.21-4.69,4.6-4.51,2.17.16,3.31,2.45,3.49,2.82.97,2.03.71,4.94-.86,5.9-2.21,1.34-7.14-1.06-7.23-4.21ZM1766.85,150.28c-2.21,1.34-7.14-1.06-7.23-4.21-.06-2.19,2.21-4.69,4.6-4.51,2.17.16,3.31,2.45,3.49,2.82.97,2.03.71,4.94-.86,5.9Z"/>
      <path class="cls-1" d="M1090.32,3.24c0,5.33,0,11.1,0,16.47-.2,5.84,4.33,11.72,4.52,17.49.06,18.43,0,36.98.03,55.42.23,5.56,2.5,12.53,3.45,17.96,2,8.03,3.06,18.77,5.52,26.04.74.7,2.28.9,2.97.27,1.24-1.89-1.51-4.22-2.18-6.12-1.48-2.6-.88-5.64-1-8.47-.65-12.42,6.02-26.18,4.87-39.17.16-5.05-2.17-9.77-3.04-14.75-.5-5.84-.08-11.76-.22-17.62-.71-10.12-3.36-20.63-2.6-30.69-.36-6.66-2.82-13.35-3.73-20.06h-8.87c.19,1.05.29,2.12.25,3.24Z"/>
      <path class="cls-1" d="M1763.96,2.12v7.75l4.5,8.65s-.64,1.99,3.21,2.91l3.85-2.91v-8.65s-2.7-4.8-5.09-9.87h-7.06l.59,2.12Z"/>
      <path class="cls-1" d="M1815.55,161.3c-.09-2.09-.62-4.47-1.65-7.94-1.34-3.23-.56-9.06-4.24-10.91-.95-.34-2.18-.36-3.37-.45v3.37s-1.28,1.23,0,4.45c0,0-1.28,3.22,0,7.13v4.36h9.26Z"/>
      <path class="cls-1" d="M1054.94,159.47s0-5.98,2.57-11.03v-9.2h-3.21l-4.83-2.3h-4.81s-.64-6.9,5.14-14.71c0,0-.64-4.14,0-10.11l4.5-2.76,1.93,2.76-.64,1.88.64,5.48s.64,5.06.64,6.9c0,0,1.28,5.06,3.85,9.2,0,0,5.14-1.38,9.63-3.22l5.78-1.84s1.28-3.22,1.28-8.28c0,0,0-5.52.64-10.57,0,0,0-5.06,3.85-8.28l2.57-2.76-2.57,8.74,2.57,9.19s-.64,5.52-2.57,10.11c0,0,.64,2.76,0,5.52l-3.21,2.3s-.64,4.14-.64,8.88v6.29l1.81-2.16,2.04-2.43s1.43-2.3,3.75-5c-1.39-.1-2.84-.14-3.83-.75-2.87-2-.56-5.16,3.58-4.36,3.21.18,7.15.96,9.88,1.82,2.48.8,2.75-.15,2.44-1.44-.74-5.76-2.88-15.51-3.23-21.89-.09-2.4.22-4.9-.46-7.25-.67-2.22-2.42-4.5-2.82-6.9-.53-6.63-.03-13.04-1.31-19.65-.14-7.3.72-14.51.41-21.84.25-8.54-1.38-17.1-2.93-25.56l-.49,1.33-.64,16.09-3.72,2.3-.14,2.76-3.85,4.14-3.21,2.3c3.21,6.44,3.21,9.65,3.21,9.65,3.21-4.6,3.85-7.67,3.85-7.67l3.21-1.99,4.13,7.36v14.71l-2.84,5.98h-7.71c-8.35,3.68-8.35,0-8.35,0v-26.06l2.57-8.99c-3.85,1.94-2.57,4.24-2.57,4.24,0,4.75-4.5,19.31-4.5,19.31l-3.9,5.98,3.9,10.11c3.21,6.44,4.5,16.09,4.5,16.09v9.65l-8.4-4.6c-5.09-6.9-3.16-16.09-3.16-16.09l-3.85-5.52c-1.28-3.22-5.78-5.98-5.78-5.98-5.14-5.52-6.42-9.19-6.42-9.19v-6.9l12.2,5.98c0-5.98-1.28-8.74-1.28-8.74-3.21-6.9-7.71-10.11-7.71-10.11l12.85-.92c-10.28-5.52-12.85-7.36-12.85-7.36-.64-4.14,0-5.98,0-5.98.64-4.6,0-6.9,0-6.9,1.93-5.06,0-8.74,0-8.74,5.14-4.6,9.63,3.25,9.63,3.25,1.28,9.16,3.21,15.6,3.21,15.6l3.16,2.3,8.4-2.3-3.2-7.73,10.27,10.03-2.57-17.89,1.28-6.93c3.85-5.98,5.78-7.36,5.78-7.36l3.35,3.77c-.08-6.48-.37-12.93-.49-19.47-.23-.85-.59-1.68-1.01-2.51-.92-.22-1.87-.67-2.66-1.29h-16.98l1.3,3.96s1.28,5.98,0,11.81c0,0-3.85,3.82-8.35,5.66,0,0-3.85,0-7.71,4.6h-8.35v-4.6l-4.17-14.71s.4-3.28,1.15-6.72h-20.05c-.04,4.78.17,9.54,2.51,14.07.96,4.24,2.13,8.53,3.43,12.63.24,3.03-2.16,6.93,1.48,9.29,2.92,2.56,10.31-.45,11.2,3.59.5,4.51-.6,8.13-.17,12.86-.07,3.7.77,8.03.16,11.56-1.69-.36-3.47-3.17-5.59-2.52-1.74,1.4-1.16,8.37,0,10.04,5.16,5.37,5.66,4.05,1.54,10.27-2.34,5.63-3.74,11.59-6.35,17.1-3.6,6.7-6.1,13.15-5.25,20.25.3,2.89.38,5.95.95,8.75,3.71,7.33,11.28,3.4,12.41,17.89.97,4.67,3.49,10.28,5.32,15.5h15.09c-.09-.61-.17-1.23-.23-1.83ZM1080.01,5.72c2.17.16,3.31,2.45,3.49,2.82.97,2.03.71,4.94-.86,5.9-2.21,1.34-7.14-1.06-7.23-4.21-.06-2.19,2.21-4.69,4.6-4.51ZM1048.2,100.63c2.17.16,3.31,2.45,3.49,2.82.97,2.03.71,4.94-.86,5.9-2.21,1.34-7.14-1.06-7.23-4.21-.06-2.19,2.21-4.69,4.6-4.51ZM1037.34,129.33c-2.21,1.34-7.14-1.06-7.23-4.21-.06-2.19,2.21-4.69,4.6-4.51,2.17.16,3.31,2.45,3.49,2.82.97,2.03.71,4.94-.86,5.9ZM1037.34,114.27c-2.21,1.34-7.14-1.06-7.23-4.21-.06-2.19,2.21-4.69,4.6-4.51,2.17.16,3.31,2.45,3.49,2.82.97,2.03.71,4.94-.86,5.9ZM1037.34,93.44c-.06-2.19,2.21-4.69,4.6-4.51,2.17.16,3.31,2.45,3.49,2.82.97,2.03.71,4.94-.86,5.9-2.21,1.34-7.14-1.06-7.23-4.21ZM1048.9,150.28c-2.21,1.34-7.14-1.06-7.23-4.21-.06-2.19,2.21-4.69,4.6-4.51,2.17.16,3.31,2.45,3.49,2.82.97,2.03.71,4.94-.86,5.9Z"/>
      <path class="cls-1" d="M1046.01,2.12v7.75l4.5,8.65s-.64,1.99,3.21,2.91l3.85-2.91v-8.65s-2.7-4.8-5.09-9.87h-7.06l.59,2.12Z"/>
      <path class="cls-1" d="M1668.57,2.12v7.75l4.5,8.65s-.64,1.99,3.21,2.91l3.85-2.91v-8.65s-2.7-4.8-5.09-9.87h-7.06l.59,2.12Z"/>
      <path class="cls-1" d="M1390.83,155.45c-.42-3.54.69-8.29-.56-11.71-.97-1.11-3.28-1.43-5.01-1.52-5.05-.1-1.76,6.51-1.84,8.66.58,2.74,2.36,5.31,2.91,8.02.07.8.13,1.6.17,2.4h9.06c-1.99-1.87-4.65-3.29-4.74-5.85Z"/>
    </g>
  </g>
</svg>